<?xml version="1.0" encoding="UTF-8" standalone="no"?>
<!--  Source: CBS (Centraal Bureau voor de Statistiek / Kadaster, Emmen, 2008). Integrated by Michiel1972. -->
<!--  Gemeentenaam: Amsterdam -->
<!--  Wijknaam: Stadsdeel Zuideramstel -->
<!--  Buurtnaam: Buitenveldert-Oost -->
<!--  Buurtcode: BU03631491 -->
<!--  Inwoneraantal 2008: 7130 -->
<!--  Oppervlakte totaal (ha): 198-->
<!--  Oppervlakte land (ha): 184 -->
  <svg
   xmlns:svg="http://www.w3.org/2000/svg"
   xmlns="http://www.w3.org/2000/svg"
   xmlns:sodipodi="http://sodipodi.sourceforge.net/DTD/sodipodi-0.dtd"
   version="1.0"
   width="300pt"
   height="300pt"
   viewBox="0 0 500 500"
   id="svg2">
  <defs
     id="defs22" />
  <clipPath id="SVG_CP_1">
    <path d="M505,0L0,0L0,505L505,505L505,0z"/>
  </clipPath>
	<g transform="matrix(16.4745852065547,0,0,16.4745852065547,-3846.67580212925,-2706.83370187591)" id="cbs_gemeenten_2009">
		<path clip-path="url(#SVG_CP_1)" fill="#000000" stroke="#000000" stroke-width="0.11" fill-opacity="0.13" stroke-miterlimit="10" stroke-linejoin="round" d="
			M255.28361,181.54645L255.3466,181.60043L255.4006,181.60043L255.8236,181.60043L256.1836,181.96034L256.7776,183.274L256.7776,183.32799
			L256.7776,183.86785L256.8226,183.82286L258.32559,182.43722L258.44259,182.55419L258.77559,185.10953L258.80259,185.29848L258.51459,185.2445
			L258.20859,185.18151L258.15459,185.18151L257.96559,185.18151L257.65959,185.48744L257.61459,185.54142L257.25459,185.89233
			L257.13759,186.25224L257.13759,186.61215L256.7776,187.08902L255.8596,186.98105L255.7066,186.97205L254.75261,187.68287L254.70761,187.73686
			L254.50961,188.04278L254.39261,188.40269L254.32061,188.41169L253.79861,188.51966L253.32162,188.51966L253.20462,188.29472
			L253.19562,188.27672L251.28763,184.70464L251.28763,184.4707L251.28763,184.4617L251.64762,184.11079L252.00762,183.63391L252.19662,183.15703
			L252.24162,183.03107L252.12462,182.79713L251.89062,182.55419L252.00762,182.43722L252.48462,182.07731L252.61962,182.01433
			L252.71862,181.96034L253.19562,182.68016L253.50161,182.47321L253.55561,182.43722L254.37461,181.96934L254.39261,181.96034
			L255.18461,181.51046L255.22961,181.48346L255.28361,181.54645M255.9406,177.55147L255.4636,177.91138L254.98661,177.66844L254.98661,177.4345
			L255.22961,177.07459L255.7066,177.07459L255.8236,176.83165L256.3006,177.07459L256.4176,177.19156L255.9406,177.55147M237.5177,168.49079
			L238.1747,168.60776L238.6517,168.60776L239.48869,168.72473L239.52469,168.73373L241.71168,169.19261L241.74768,169.20161L242.99867,169.54352
			L243.06167,169.56152L244.25867,169.80446L244.30367,169.81345L245.44666,170.15537L245.44666,170.0384L245.68966,169.67849L
			245.56366,169.08464L245.92366,168.37382L246.28365,168.24786L246.70665,168.35583L246.76065,168.37382L247.12065,168.96767L
			248.30864,168.96767L248.87564,169.07564L248.90264,169.08464L249.57764,169.53453L249.62264,169.56152L250.57663,170.15537L
			250.62163,170.19136L251.47663,170.83019L251.53063,170.87518L252.42162,170.54227L252.48462,170.51527L252.60162,170.3983L252.84462,169.56152
			L254.86961,169.32758L255.10361,169.20161L255.13961,169.18362L255.7066,168.8507L256.0576,169.32758L256.1836,169.32758L256.3006,169.08464
			L257.13759,169.08464L258.56859,169.92143L258.68559,169.80446L258.80259,169.67849L258.81159,169.68749L259.39658,169.80446
			L259.75658,170.28133L260.30558,170.16436L260.35058,170.15537L261.07057,170.3983L261.78157,170.28133L262.38457,170.15537L
			262.61857,170.28133L262.50157,170.63224L261.78157,170.51527L261.30457,170.63224L260.82757,171.46903L260.23358,171.82894L
			259.63958,172.30582L259.39658,172.66572L259.16258,173.85342L258.56859,174.21333L258.09159,174.57323L258.20859,175.16708L
			258.09159,175.8779L257.73159,176.00387L257.13759,175.76093L256.8946,175.16708L256.1836,175.40102L255.7066,175.8779L255.4636,175.8779
			L254.86961,175.05011L254.03261,174.57323L253.83461,174.86116L253.79861,174.92414L253.79861,175.16708L255.4636,176.48074L
			255.5806,176.59771L255.5896,176.59771L255.6166,176.61571L255.6256,176.61571L255.6346,176.61571L255.6616,176.63371L255.6796,176.6427
			L255.6976,176.6517L255.7066,176.6517L255.7336,176.6607L255.7606,176.67869L255.7966,176.68769L255.8056,176.69669L255.8506,176.71468
			L255.8776,176.72368L255.8866,176.73268L255.9046,176.73268L255.9136,176.73268L255.9226,176.74168L255.9316,176.74168L255.9496,176.75068
			L255.9586,176.75068L255.9676,176.75068L255.9766,176.75967L255.9856,176.75967L255.9946,176.75967L256.0216,176.76867L256.0396,176.77767
			L256.0576,176.77767L256.0756,176.78667L256.0936,176.78667L256.1026,176.79566L256.1116,176.79566L256.1386,176.79566L256.1476,176.80466
			L256.1566,176.80466L256.1746,176.81366L256.2016,176.81366L256.2106,176.81366L256.2286,176.82266L256.2466,176.82266L256.2556,176.82266
			L256.2646,176.82266L256.2736,176.83165L256.2916,176.83165L256.3006,176.83165L256.3096,176.83165L256.3186,176.83165L256.3276,176.84065
			L256.3366,176.84065L256.3546,176.84065L256.3726,176.84065L256.3816,176.84065L256.3906,176.84965L256.4086,176.84965L256.4176,176.84965
			L256.4356,176.84965L256.4446,176.84965L256.4626,176.84965L256.4716,176.85865L256.4806,176.85865L256.4896,176.85865L256.5256,176.85865
			L256.5616,176.85865L256.5706,176.85865L256.5886,176.85865L256.6066,176.85865L256.6156,176.85865L256.6246,176.85865L256.6426,176.85865
			L256.6606,176.85865L256.6876,176.85865L256.7146,176.85865L256.7326,176.85865L256.7506,176.85865L256.7686,176.85865L256.7776,176.85865
			L256.8136,176.85865L256.8586,176.85865L256.8676,176.85865L256.8766,176.85865L256.9216,176.84965L256.9306,176.84965L256.9486,176.84965
			L256.9666,176.84065L256.9846,176.84065L257.0026,176.84065L257.0206,176.83165L257.0296,176.83165L257.0566,176.83165L257.0656,176.83165
			L257.0836,176.82266L257.1106,176.82266L257.1196,176.82266L257.13759,176.82266L257.15559,176.81366L257.17359,176.81366L257.19159,176.81366
			L257.20959,176.80466L257.22759,176.80466L257.23659,176.80466L257.26359,176.79566L257.29059,176.79566L257.29959,176.79566
			L257.31759,176.79566L257.33559,176.78667L257.34459,176.78667L257.36259,176.78667L257.37159,176.78667L257.38959,176.77767
			L257.40759,176.77767L257.42559,176.77767L257.43459,176.77767L257.45259,176.76867L257.46159,176.76867L257.76759,176.72368
			L257.78559,176.72368L257.81259,176.71468L257.83959,176.71468L257.87559,176.70569L257.89359,176.70569L257.92959,176.70569
			L257.95659,176.69669L257.98359,176.69669L258.01059,176.68769L258.04659,176.68769L258.05559,176.67869L258.06459,176.67869
			L258.07359,176.67869L258.08259,176.67869L258.09159,176.67869L258.10959,176.67869L258.11859,176.67869L258.12759,176.6697L
			258.13659,176.6697L258.16359,176.6697L258.17259,176.6697L258.18159,176.6697L258.18159,176.6607L258.18159,176.6517L258.19059,176.6607
			L258.19959,176.6607L258.20859,176.6607L258.21759,176.6607L258.22659,176.6607L258.22659,176.6697L258.21759,176.6697L258.20859,176.6697
			L258.19959,176.6697L258.19059,176.67869L258.19059,176.68769L258.18159,176.68769L258.18159,176.67869L257.75859,176.74168L
			257.56059,176.76867L257.46159,176.78667L257.25459,176.81366L257.23659,176.81366L257.21859,176.82266L257.15559,176.83165L
			257.0476,176.84965L256.9306,176.86765L256.8586,176.86765L256.7596,176.87664L256.6606,176.87664L256.6156,176.87664L256.5616,176.87664
			L256.5436,176.87664L256.5166,176.86765L256.4896,176.86765L256.4806,176.86765L256.4716,176.86765L256.4626,176.86765L256.4536,176.86765
			L256.4356,176.86765L256.4176,176.85865L256.3996,176.85865L256.3816,176.85865L256.3456,176.84965L256.3366,176.84965L256.3186,176.84965
			L256.3006,176.84965L256.2826,176.84065L256.2736,176.84065L256.2646,176.84065L256.2556,176.84065L256.2466,176.83165L256.2376,176.83165
			L256.2196,176.83165L256.2016,176.82266L256.1926,176.82266L256.1836,176.82266L256.1656,176.81366L256.1476,176.81366L256.1296,176.81366
			L256.1206,176.80466L256.0936,176.80466L256.0936,176.79566L256.0576,176.79566L255.9856,176.76867L255.8866,176.74168L255.8506,176.72368
			L255.7966,176.70569L255.7516,176.68769L255.7246,176.67869L255.6616,176.6517L255.5986,176.61571L255.5626,176.59771L255.3466,176.59771
			L254.50961,176.59771L253.67261,176.59771L253.67261,176.95762L253.91561,177.19156L254.98661,177.91138L255.3466,178.02835L
			255.8236,177.91138L255.9316,177.79441L255.9406,177.78541L256.4176,177.55147L257.48859,178.38826L257.54259,178.44224L258.32559,179.34201
			L258.09159,179.69292L258.05559,179.73791L257.73159,180.1698L256.9126,180.1698L256.8946,180.1698L256.0666,179.46798L256.0576,179.45898
			L255.6616,179.05408L255.14861,178.54122L255.10361,178.50523L254.73461,178.35226L254.50961,178.26229L254.14961,178.6222L253.91561,179.20705
			L253.91561,179.21604L253.84361,179.31502L253.46562,179.89087L253.43862,179.93586L253.19562,180.29577L253.16862,180.32276
			L252.96162,180.52971L252.36762,180.77264L252.33162,180.78164L251.89062,181.00658L251.17063,180.77264L250.99063,180.9526L
			250.93663,181.00658L250.69363,181.24952L249.98263,181.60043L249.98263,182.1313L249.98263,182.20328L249.98263,182.9141L249.85663,183.15703
			L249.62264,183.15703L249.02864,182.79713L248.59664,182.68915L248.55164,182.68016L247.47165,182.68016L247.43565,182.68016
			L247.12065,182.68016L247.10265,182.68016L246.40065,182.68016L246.39165,182.68016L245.36566,182.68016L245.32966,182.68016
			L245.32966,181.60043L244.37566,181.60043L244.01567,181.7264L244.01567,181.96034L242.22468,182.20328L242.10768,181.96034L
			242.08068,181.94234L240.70368,180.90761L240.67668,180.88961L240.59569,180.88961L240.55969,180.88961L240.08269,180.05283L
			238.6517,178.9821L238.6247,178.97311L238.1927,178.74816L238.1747,178.73917L237.2207,178.02835L237.3287,177.01161L237.3377,176.95762
			L237.4547,175.8779L237.3377,175.16708L237.4187,174.92414L237.4547,174.80717L237.4547,174.35729L237.4547,174.3303L237.4547,173.87141
			L237.4547,173.20558L237.4547,172.66572L237.4277,172.65673L235.06972,172.18885L235.90671,168.13089L236.82471,168.36483L236.86071,168.37382
			L237.5177,168.49079"/>
		<path clip-path="url(#SVG_CP_1)" fill="none" stroke="#000000" stroke-width="0.013" stroke-miterlimit="10" stroke-linejoin="round" d="
			M255.22961,181.48346L255.3466,181.60043L255.4006,181.60043L255.8236,181.60043L256.1836,181.96034L256.7776,183.274L256.7776,183.32799
			L256.7776,183.6789"/>
		<path clip-path="url(#SVG_CP_1)" fill="none" stroke="#000000" stroke-width="0.013" stroke-miterlimit="10" stroke-linejoin="round" d="
			M258.51459,183.08505L258.77559,185.10953L258.80259,185.29848L258.51459,185.2445L258.20859,185.18151L258.15459,185.18151L
			258.04659,185.18151"/>
		<path clip-path="url(#SVG_CP_1)" fill="none" stroke="#000000" stroke-width="0.013" stroke-miterlimit="10" stroke-linejoin="round" d="
			M256.2016,187.02604L255.8596,186.98105L255.7066,186.97205L254.75261,187.68287L254.70761,187.73686L254.50961,188.04278L254.39261,188.40269
			L254.32061,188.41169L253.90661,188.49266"/>
		<path clip-path="url(#SVG_CP_1)" fill="none" stroke="#000000" stroke-width="0.013" stroke-miterlimit="10" stroke-linejoin="round" d="
			M252.18762,186.3872L251.28763,184.70464L251.28763,184.4707L251.28763,184.4617L251.64762,184.11079L251.85462,183.83186"/>
		<path clip-path="url(#SVG_CP_1)" fill="none" stroke="#000000" stroke-width="0.013" stroke-miterlimit="10" stroke-linejoin="round" d="
			M252.97962,182.35624L253.19562,182.68016L253.50161,182.47321L253.55561,182.43722L254.37461,181.96934L254.39261,181.96034
			L255.18461,181.51046L255.22961,181.48346M256.4176,177.19156L256.2106,177.34452"/>
		<path clip-path="url(#SVG_CP_1)" fill="none" stroke="#000000" stroke-width="0.013" stroke-miterlimit="10" stroke-linejoin="round" d="
			M255.9316,176.88564L256.3006,177.07459L256.4176,177.19156M236.86071,168.37382L238.1747,168.60776L238.6517,168.60776L239.25469,168.69774
			"/>
		<path clip-path="url(#SVG_CP_1)" fill="none" stroke="#000000" stroke-width="0.013" stroke-miterlimit="10" stroke-linejoin="round" d="
			M242.18868,169.32758L242.99867,169.54352L243.06167,169.56152L244.25867,169.80446L244.30367,169.81345L245.09566,170.05639
			"/>
		<path clip-path="url(#SVG_CP_1)" fill="none" stroke="#000000" stroke-width="0.013" stroke-miterlimit="10" stroke-linejoin="round" d="
			M246.57165,168.31984L246.70665,168.35583L246.76065,168.37382L247.12065,168.96767L248.30864,168.96767L248.87564,169.07564
			L248.90264,169.08464L249.16364,169.2556"/>
		<path clip-path="url(#SVG_CP_1)" fill="none" stroke="#000000" stroke-width="0.013" stroke-miterlimit="10" stroke-linejoin="round" d="
			M251.64762,170.83019L252.42162,170.54227L252.48462,170.51527L252.60162,170.3983L252.84462,169.56152L253.90661,169.43555"/>
		<path clip-path="url(#SVG_CP_1)" fill="none" stroke="#000000" stroke-width="0.013" stroke-miterlimit="10" stroke-linejoin="round" d="
			M256.3906,169.08464L257.13759,169.08464L258.56859,169.92143L258.68559,169.80446L258.80259,169.67849L258.81159,169.68749L
			259.06358,169.73248"/>
		<path clip-path="url(#SVG_CP_1)" fill="none" stroke="#000000" stroke-width="0.013" stroke-miterlimit="10" stroke-linejoin="round" d="
			M261.75457,170.28133L261.78157,170.28133L262.38457,170.15537L262.61857,170.28133L262.50157,170.63224L261.78157,170.51527
			L261.30457,170.63224L261.06157,171.07313"/>
		<path clip-path="url(#SVG_CP_1)" fill="none" stroke="#000000" stroke-width="0.013" stroke-miterlimit="10" stroke-linejoin="round" d="
			M259.27058,173.29556L259.16258,173.85342L258.56859,174.21333L258.09159,174.57323L258.20859,175.16708L258.11859,175.68895
			"/>
		<path clip-path="url(#SVG_CP_1)" fill="none" stroke="#000000" stroke-width="0.013" stroke-miterlimit="10" stroke-linejoin="round" d="
			M255.9046,175.67995L255.7066,175.8779L255.4636,175.8779L254.86961,175.05011L254.03261,174.57323L253.83461,174.86116L253.79861,174.92414
			L253.79861,174.98713"/>
		<path clip-path="url(#SVG_CP_1)" fill="none" stroke="#000000" stroke-width="0.013" stroke-miterlimit="10" stroke-linejoin="round" d="
			M256.0756,176.78667L256.0936,176.78667L256.1026,176.79566L256.1116,176.79566L256.1386,176.79566L256.1476,176.80466L256.1566,176.80466
			L256.1746,176.81366L256.2016,176.81366L256.2106,176.81366L256.2286,176.82266L256.2466,176.82266L256.2556,176.82266L256.2646,176.82266
			L256.2736,176.83165L256.2916,176.83165L256.3006,176.83165L256.3096,176.83165L256.3186,176.83165L256.3276,176.84065L256.3366,176.84065
			L256.3546,176.84065L256.3726,176.84065L256.3816,176.84065L256.3906,176.84965L256.4086,176.84965L256.4176,176.84965L256.4356,176.84965
			L256.4446,176.84965L256.4626,176.84965L256.4716,176.85865L256.4806,176.85865L256.4896,176.85865L256.5256,176.85865L256.5616,176.85865
			L256.5706,176.85865L256.5886,176.85865L256.6066,176.85865L256.6156,176.85865L256.6246,176.85865L256.6426,176.85865L256.6606,176.85865
			L256.6876,176.85865L256.7146,176.85865L256.7326,176.85865L256.7506,176.85865L256.7686,176.85865L256.7776,176.85865L256.8136,176.85865
			L256.8586,176.85865L256.8676,176.85865L256.8766,176.85865L256.9216,176.84965L256.9306,176.84965L256.9486,176.84965L256.9666,176.84065
			L256.9846,176.84065L257.0026,176.84065L257.0206,176.83165L257.0296,176.83165L257.0566,176.83165L257.0656,176.83165L257.0836,176.82266
			L257.1106,176.82266L257.1196,176.82266L257.13759,176.82266L257.15559,176.81366L257.17359,176.81366L257.19159,176.81366L257.20959,176.80466
			L257.22759,176.80466L257.23659,176.80466L257.26359,176.79566L257.29059,176.79566L257.29959,176.79566L257.31759,176.79566
			L257.33559,176.78667L257.34459,176.78667L257.36259,176.78667L257.37159,176.78667L257.38959,176.77767L257.40759,176.77767
			L257.42559,176.77767L257.43459,176.77767L257.45259,176.76867L257.46159,176.76867L257.76759,176.72368L257.78559,176.72368
			L257.81259,176.71468L257.83959,176.71468L257.87559,176.70569L257.89359,176.70569L257.92959,176.70569L257.95659,176.69669
			L257.98359,176.69669L258.01059,176.68769L258.04659,176.68769L258.05559,176.67869L258.06459,176.67869L258.07359,176.67869
			L258.08259,176.67869L258.09159,176.67869L258.10959,176.67869L258.11859,176.67869L258.12759,176.6697L258.13659,176.6697L258.16359,176.6697
			L258.17259,176.6697L258.18159,176.6697L258.18159,176.6607L258.18159,176.6517L258.19059,176.6607L258.19959,176.6607L258.20859,176.6607
			L258.21759,176.6607L258.22659,176.6607L258.22659,176.6697L258.21759,176.6697L258.20859,176.6697L258.19959,176.6697L258.19059,176.67869
			L258.19059,176.68769L258.18159,176.68769L258.18159,176.67869L257.75859,176.74168L257.56059,176.76867L257.46159,176.78667
			L257.44359,176.78667"/>
		<path clip-path="url(#SVG_CP_1)" fill="none" stroke="#000000" stroke-width="0.013" stroke-miterlimit="10" stroke-linejoin="round" d="
			M254.49161,176.59771L253.67261,176.59771L253.67261,176.95762L253.91561,177.19156L254.98661,177.91138L255.17561,177.97436
			"/>
		<path clip-path="url(#SVG_CP_1)" fill="none" stroke="#000000" stroke-width="0.013" stroke-miterlimit="10" stroke-linejoin="round" d="
			M257.66859,178.5862L258.32559,179.34201L258.09159,179.69292L258.05559,179.73791L257.73159,180.1698L256.9126,180.1698L256.8946,180.1698
			L256.7866,180.07982"/>
		<path clip-path="url(#SVG_CP_1)" fill="none" stroke="#000000" stroke-width="0.013" stroke-miterlimit="10" stroke-linejoin="round" d="
			M254.47361,178.29828L254.14961,178.6222L253.91561,179.20705L253.91561,179.21604L253.84361,179.31502L253.46562,179.89087L
			253.43862,179.93586L253.19562,180.29577L253.16862,180.32276L252.96162,180.52971L252.70962,180.62868"/>
		<path clip-path="url(#SVG_CP_1)" fill="none" stroke="#000000" stroke-width="0.013" stroke-miterlimit="10" stroke-linejoin="round" d="
			M250.09963,181.54645L249.98263,181.60043L249.98263,182.1313L249.98263,182.20328L249.98263,182.9141L249.85663,183.15703L249.62264,183.15703
			L249.02864,182.79713L248.67764,182.70715"/>
		<path clip-path="url(#SVG_CP_1)" fill="none" stroke="#000000" stroke-width="0.013" stroke-miterlimit="10" stroke-linejoin="round" d="
			M245.68066,182.68016L245.36566,182.68016L245.32966,182.68016L245.32966,181.60043L244.37566,181.60043L244.01567,181.7264L
			244.01567,181.96034"/>
		<path clip-path="url(#SVG_CP_1)" fill="none" stroke="#000000" stroke-width="0.013" stroke-miterlimit="10" stroke-linejoin="round" d="
			M241.36068,181.40248L240.70368,180.90761L240.67668,180.88961L240.59569,180.88961L240.55969,180.88961L240.08269,180.05283
			L239.23669,179.41399"/>
		<path clip-path="url(#SVG_CP_1)" fill="none" stroke="#000000" stroke-width="0.013" stroke-miterlimit="10" stroke-linejoin="round" d="
			M237.2747,177.48849L237.3287,177.01161L237.3377,176.95762L237.4547,175.8779L237.3377,175.16708L237.4187,174.92414L237.4547,174.80717
			L237.4547,174.52825"/>
		<path clip-path="url(#SVG_CP_1)" fill="none" stroke="#000000" stroke-width="0.013" stroke-miterlimit="10" stroke-linejoin="round" d="
			M236.33871,172.44078L235.06972,172.18885L235.41171,170.51527"/>
		<path clip-path="url(#SVG_CP_1)" fill="none" stroke="#000000" stroke-width="0.013" stroke-miterlimit="10" stroke-linejoin="round" d="
			M236.45571,168.26585L236.82471,168.36483L236.86071,168.37382"/>
       </g>
<g transform="matrix(16.4745852065547,0,0,16.4745852065547,-3846.67580212925,-2706.83370187591)" id="wijk_2008_gen">
		<path clip-path="url(#SVG_CP_1)" fill="none" stroke="#000000" stroke-width="0.03" stroke-miterlimit="10" stroke-linecap="round" stroke-linejoin="round" d="
			M249.08264,174.88815L249.40664,175.03212L249.82963,175.02312L249.89263,175.482L250.84663,175.67095L251.40463,175.93189L251.56663,176.12983
			L251.61163,176.36377L251.51263,176.81366L251.12563,176.82266L250.73863,177.18256L250.41463,177.38051L249.59564,177.59646
			L249.29864,177.77641L248.81264,177.93837L248.17364,177.88438L247.89465,177.63245L247.46265,177.38951L247.24665,177.08359
			L247.23765,177.00261L247.10265,176.75967L247.03965,176.52573L246.85965,176.07585L246.93165,175.8779L247.28265,174.75319L
			247.47165,174.44727L247.54365,174.28531L247.69665,173.89841L248.22764,173.88941L248.59664,173.84442L248.70464,174.55524L
			248.83964,174.68121L249.08264,174.88815"/>
		<path clip-path="url(#SVG_CP_1)" fill="none" stroke="#000000" stroke-width="0.03" stroke-miterlimit="10" stroke-linecap="round" stroke-linejoin="round" d="
			M236.86071,168.37382L238.1747,168.60776L238.6517,168.60776L239.48869,168.72473L239.52469,168.73373L241.71168,169.19261L241.74768,169.20161
			L242.99867,169.54352L243.06167,169.56152L244.25867,169.80446L244.30367,169.81345L245.44666,170.15537L245.44666,170.0384L
			246.08566,170.37131L247.84065,172.26982L247.68765,172.44978L247.00365,173.08861L246.64365,172.96265L246.17565,173.26857L
			246.10366,173.30456L245.75266,172.99864L245.49166,172.95365L245.49166,173.38554L245.64466,173.50251L245.64466,173.82643L
			244.47466,173.81743L244.48366,174.3123L244.44766,174.3123L244.00667,174.3213L243.38567,174.33929L243.39467,173.99738L242.35968,173.96139
			L242.35968,173.74545L238.3547,173.71845L238.2917,173.82643L238.0757,173.88041L237.4547,173.87141L237.4547,173.20558L237.4547,172.66572
			L237.4277,172.65673L235.06972,172.18885L235.90671,168.13089L236.82471,168.36483L236.86071,168.37382"/>
		<path clip-path="url(#SVG_CP_1)" fill="none" stroke="#000000" stroke-width="0.03" stroke-miterlimit="10" stroke-linecap="round" stroke-linejoin="round" d="
			M247.68765,172.44978L248.36264,173.24158L248.59664,173.84442L248.22764,173.88941L247.69665,173.89841L247.54365,174.28531
			L247.47165,174.44727L247.28265,174.75319L246.93165,175.8779L246.27465,176.08485L246.19365,176.11184L246.28365,175.98587L
			246.05866,175.60797L245.73466,174.27631L246.06766,174.27631L245.95066,173.9254L246.10366,173.9254L246.11266,173.82643L245.64466,173.82643
			L245.64466,173.50251L245.49166,173.38554L245.49166,172.95365L245.75266,172.99864L246.10366,173.30456L246.17565,173.26857
			L246.64365,172.96265L247.00365,173.08861L247.68765,172.44978"/>
		<path clip-path="url(#SVG_CP_1)" fill="none" stroke="#000000" stroke-width="0.03" stroke-miterlimit="10" stroke-linecap="round" stroke-linejoin="round" d="
			M247.46265,177.38951L246.12166,177.8124L246.11266,177.78541L245.23966,178.13632L245.18566,178.11832L245.25766,177.92937L
			245.45566,177.4345L245.61766,177.14657L245.68066,177.0296L246.19365,176.11184L246.27465,176.08485L246.93165,175.8779L246.85965,176.07585
			L247.03965,176.52573L247.10265,176.75967L247.23765,177.00261L247.24665,177.08359L247.46265,177.38951"/>
		<path clip-path="url(#SVG_CP_1)" fill="none" stroke="#000000" stroke-width="0.03" stroke-miterlimit="10" stroke-linecap="round" stroke-linejoin="round" d="
			M256.4176,177.19156L255.4636,177.91138L254.98661,177.66844L254.98661,177.4345L255.22961,177.07459L255.7066,177.07459L255.8236,176.83165
			L256.3006,177.07459L256.4176,177.19156M255.5806,176.59771L255.5896,176.59771L255.6166,176.61571L255.6256,176.61571L255.6346,176.61571
			L255.6616,176.63371L255.6796,176.6427L255.6976,176.6517L255.7066,176.6517L255.7336,176.6607L255.7606,176.67869L255.7966,176.68769
			L255.8056,176.69669L255.8506,176.71468L255.8776,176.72368L255.8866,176.73268L255.9046,176.73268L255.9136,176.73268L255.9226,176.74168
			L255.9316,176.74168L255.9496,176.75068L255.9586,176.75068L255.9676,176.75068L255.9766,176.75967L255.9856,176.75967L255.9946,176.75967
			L256.0216,176.76867L256.0396,176.77767L256.0576,176.77767L256.0756,176.78667L256.0936,176.78667L256.1026,176.79566L256.1116,176.79566
			L256.1386,176.79566L256.1476,176.80466L256.1566,176.80466L256.1746,176.81366L256.2016,176.81366L256.2106,176.81366L256.2286,176.82266
			L256.2466,176.82266L256.2556,176.82266L256.2646,176.82266L256.2736,176.83165L256.2916,176.83165L256.3006,176.83165L256.3096,176.83165
			L256.3186,176.83165L256.3276,176.84065L256.3366,176.84065L256.3546,176.84065L256.3726,176.84065L256.3816,176.84065L256.3906,176.84965
			L256.4086,176.84965L256.4176,176.84965L256.4356,176.84965L256.4446,176.84965L256.4626,176.84965L256.4716,176.85865L256.4806,176.85865
			L256.4896,176.85865L256.5256,176.85865L256.5616,176.85865L256.5706,176.85865L256.5886,176.85865L256.6066,176.85865L256.6156,176.85865
			L256.6246,176.85865L256.6426,176.85865L256.6606,176.85865L256.6876,176.85865L256.7146,176.85865L256.7326,176.85865L256.7506,176.85865
			L256.7686,176.85865L256.7776,176.85865L256.8136,176.85865L256.8586,176.85865L256.8676,176.85865L256.8766,176.85865L256.9216,176.84965
			L256.9306,176.84965L256.9486,176.84965L256.9666,176.84065L256.9846,176.84065L257.0026,176.84065L257.0206,176.83165L257.0296,176.83165
			L257.0566,176.83165L257.0656,176.83165L257.0836,176.82266L257.1106,176.82266L257.1196,176.82266L257.13759,176.82266L257.15559,176.81366
			L257.17359,176.81366L257.19159,176.81366L257.20959,176.80466L257.22759,176.80466L257.23659,176.80466L257.26359,176.79566
			L257.29059,176.79566L257.29959,176.79566L257.31759,176.79566L257.33559,176.78667L257.34459,176.78667L257.36259,176.78667
			L257.37159,176.78667L257.38959,176.77767L257.40759,176.77767L257.42559,176.77767L257.43459,176.77767L257.45259,176.76867
			L257.46159,176.76867L257.76759,176.72368L257.78559,176.72368L257.81259,176.71468L257.83959,176.71468L257.87559,176.70569
			L257.89359,176.70569L257.92959,176.70569L257.95659,176.69669L257.98359,176.69669L258.01059,176.68769L258.04659,176.68769
			L258.05559,176.67869L258.06459,176.67869L258.07359,176.67869L258.08259,176.67869L258.09159,176.67869L258.10959,176.67869
			L258.11859,176.67869L258.12759,176.6697L258.13659,176.6697L258.16359,176.6697L258.17259,176.6697L258.18159,176.6697L258.18159,176.6607
			L258.18159,176.6517L258.19059,176.6607L258.19959,176.6607L258.20859,176.6607L258.21759,176.6607L258.22659,176.6607L258.22659,176.6697
			L258.21759,176.6697L258.20859,176.6697L258.19959,176.6697L258.19059,176.67869L258.19059,176.68769L258.18159,176.68769L258.18159,176.67869
			L257.75859,176.74168L257.56059,176.76867L257.46159,176.78667L257.25459,176.81366L257.23659,176.81366L257.21859,176.82266
			L257.15559,176.83165L257.0476,176.84965L256.9306,176.86765L256.8586,176.86765L256.7596,176.87664L256.6606,176.87664L256.6156,176.87664
			L256.5616,176.87664L256.5436,176.87664L256.5166,176.86765L256.4896,176.86765L256.4806,176.86765L256.4716,176.86765L256.4626,176.86765
			L256.4536,176.86765L256.4356,176.86765L256.4176,176.85865L256.3996,176.85865L256.3816,176.85865L256.3456,176.84965L256.3366,176.84965
			L256.3186,176.84965L256.3006,176.84965L256.2826,176.84065L256.2736,176.84065L256.2646,176.84065L256.2556,176.84065L256.2466,176.83165
			L256.2376,176.83165L256.2196,176.83165L256.2016,176.82266L256.1926,176.82266L256.1836,176.82266L256.1656,176.81366L256.1476,176.81366
			L256.1296,176.81366L256.1206,176.80466L256.0936,176.80466L256.0936,176.79566L256.0576,176.79566L255.9856,176.76867L255.8866,176.74168
			L255.8506,176.72368L255.7966,176.70569L255.7516,176.68769L255.7246,176.67869L255.6616,176.6517L255.5986,176.61571L255.5626,176.59771
			L255.3466,176.59771L254.50961,176.59771L253.67261,176.59771L253.67261,176.95762L253.91561,177.19156L254.98661,177.91138L
			255.3466,178.02835L255.8236,177.91138L255.9316,177.79441L255.9406,177.78541L256.4176,177.55147L257.48859,178.38826L257.54259,178.44224
			L258.32559,179.34201L258.09159,179.69292L258.05559,179.73791L257.73159,180.1698L256.9126,180.1698L256.8946,180.1698L256.0666,179.46798
			L256.0576,179.45898L255.6616,179.05408L255.14861,178.54122L255.10361,178.50523L254.73461,178.35226L253.96061,177.80341L253.67261,178.00135
			L252.24162,177.90238L251.96262,177.99236L251.64762,177.74042L251.50363,177.48849L251.51263,176.81366L251.61163,176.36377
			L251.56663,176.12983L251.40463,175.93189L250.84663,175.67095L249.89263,175.482L249.82963,175.02312L250.54963,174.92414L251.49463,174.77118
			L253.19562,174.76219L253.78961,174.84316L253.83461,174.86116L253.79861,174.92414L253.79861,175.16708L255.4636,176.48074L
			255.5806,176.59771"/>
		<path clip-path="url(#SVG_CP_1)" fill="none" stroke="#000000" stroke-width="0.03" stroke-miterlimit="10" stroke-linecap="round" stroke-linejoin="round" d="
			M244.60966,176.00387L244.24067,176.03086L243.67367,175.8869L243.79067,175.46401L244.00667,174.3213L244.44766,174.3123L244.48366,174.3123
			L244.47466,173.81743L245.64466,173.82643L246.11266,173.82643L246.10366,173.9254L245.95066,173.9254L246.06766,174.27631L245.73466,174.27631
			L246.05866,175.60797L245.32066,175.73394L244.60966,176.00387"/>
		<path clip-path="url(#SVG_CP_1)" fill="none" stroke="#000000" stroke-width="0.03" stroke-miterlimit="10" stroke-linecap="round" stroke-linejoin="round" d="
			M246.19365,176.11184L245.68066,177.0296L245.61766,177.14657L245.45566,177.4345L245.25766,177.92937L244.76266,177.89338L244.87066,177.19156
			L244.90666,176.93063L244.74466,176.34578L244.23167,176.39977L244.24067,176.03086L244.60966,176.00387L245.32066,175.73394
			L246.05866,175.60797L246.28365,175.98587L246.19365,176.11184"/>
		<path clip-path="url(#SVG_CP_1)" fill="none" stroke="#000000" stroke-width="0.03" stroke-miterlimit="10" stroke-linecap="round" stroke-linejoin="round" d="
			M246.76065,168.37382L247.12065,168.96767L248.30864,168.96767L248.87564,169.07564L248.90264,169.08464L249.57764,169.53453
			L249.62264,169.56152L250.57663,170.15537L250.62163,170.19136L251.47663,170.83019L251.53063,170.87518L252.42162,170.54227
			L252.48462,170.51527L252.60162,170.3983L252.84462,169.56152L254.86961,169.32758L255.10361,169.20161L255.13961,169.18362L
			255.7066,168.8507L256.0576,169.32758L256.1836,169.32758L256.3006,169.08464L257.13759,169.08464L258.56859,169.92143L258.68559,169.80446
			L258.80259,169.67849L258.81159,169.68749L259.39658,169.80446L259.75658,170.28133L260.30558,170.16436L260.35058,170.15537
			L261.07057,170.3983L261.78157,170.28133L262.38457,170.15537L262.61857,170.28133L262.50157,170.63224L261.78157,170.51527L
			261.30457,170.63224L260.82757,171.46903L260.23358,171.82894L259.63958,172.30582L259.39658,172.66572L259.16258,173.85342L
			258.56859,174.21333L258.09159,174.57323L258.20859,175.16708L258.09159,175.8779L257.73159,176.00387L257.13759,175.76093L256.8946,175.16708
			L256.1836,175.40102L255.7066,175.8779L255.4636,175.8779L254.86961,175.05011L254.03261,174.57323L253.83461,174.86116L253.78961,174.84316
			L253.19562,174.76219L251.49463,174.77118L250.54963,174.92414L249.82963,175.02312L249.40664,175.03212L249.08264,174.88815
			L248.83964,174.68121L248.70464,174.55524L248.59664,173.84442L248.36264,173.24158L247.68765,172.44978L247.84065,172.26982
			L246.08566,170.37131L245.44666,170.0384L245.68966,169.67849L245.56366,169.08464L245.92366,168.37382L246.28365,168.24786L
			246.70665,168.35583L246.76065,168.37382"/>
		<path clip-path="url(#SVG_CP_1)" fill="none" stroke="#000000" stroke-width="0.03" stroke-miterlimit="10" stroke-linecap="round" stroke-linejoin="round" d="
			M242.35968,173.74545L242.35968,173.96139L243.39467,173.99738L243.38567,174.33929L244.00667,174.3213L243.79067,175.46401L
			243.67367,175.8869L243.60167,176.2558L243.18767,176.22881L243.01667,176.02186L242.92667,176.08485L241.77468,177.68644L241.41468,176.67869
			L241.22568,175.92289L240.23569,175.76993L240.05569,175.52699L239.94769,175.44601L239.24569,176.29179L237.5807,174.73519L
			237.4187,174.92414L237.4547,174.80717L237.4547,174.35729L237.4547,174.3303L237.4547,173.87141L238.0757,173.88041L238.2917,173.82643
			L238.3547,173.71845L242.35968,173.74545"/>
		<path clip-path="url(#SVG_CP_1)" fill="none" stroke="#000000" stroke-width="0.03" stroke-miterlimit="10" stroke-linecap="round" stroke-linejoin="round" d="
			M237.5807,174.73519L239.24569,176.29179L239.94769,175.44601L240.05569,175.52699L240.23569,175.76993L241.22568,175.92289L
			241.41468,176.67869L241.77468,177.68644L241.88268,177.88438L242.20668,177.77641L242.30568,177.84839L242.26068,178.11832L
			242.44968,178.72117L241.80168,178.71217L241.08168,178.94611L240.60469,179.15306L240.78468,179.34201L240.70368,179.7829L240.91068,179.84588
			L240.88368,180.73665L240.70368,180.90761L240.67668,180.88961L240.59569,180.88961L240.55969,180.88961L240.08269,180.05283
			L238.6517,178.9821L238.6247,178.97311L238.1927,178.74816L238.1747,178.73917L237.2207,178.02835L237.3287,177.01161L237.3377,176.95762
			L237.4547,175.8779L237.3377,175.16708L237.4187,174.92414L237.5807,174.73519"/>
		<path clip-path="url(#SVG_CP_1)" fill="none" stroke="#000000" stroke-width="0.03" stroke-miterlimit="10" stroke-linecap="round" stroke-linejoin="round" d="
			M244.24067,176.03086L244.23167,176.39977L244.74466,176.34578L244.90666,176.93063L244.87066,177.19156L244.76266,177.89338
			L244.75366,178.23529L244.41166,178.24429L244.49266,179.44998L244.15067,179.49497L244.22267,180.41274L244.33066,180.51171
			L244.59166,180.5477L244.59166,180.59269L244.60066,180.78164L244.42966,181.07857L244.15067,181.28551L242.62067,181.44747L
			242.35968,181.53745L242.08068,181.94234L240.70368,180.90761L240.88368,180.73665L240.91068,179.84588L240.70368,179.7829L240.78468,179.34201
			L240.60469,179.15306L241.08168,178.94611L241.80168,178.71217L242.44968,178.72117L242.26068,178.11832L242.30568,177.84839
			L242.20668,177.77641L241.88268,177.88438L241.77468,177.68644L242.92667,176.08485L243.01667,176.02186L243.18767,176.22881
			L243.60167,176.2558L243.67367,175.8869L244.24067,176.03086"/>
		<path clip-path="url(#SVG_CP_1)" fill="none" stroke="#000000" stroke-width="0.03" stroke-miterlimit="10" stroke-linecap="round" stroke-linejoin="round" d="
			M255.22961,181.48346L255.3466,181.60043L255.4006,181.60043L255.8236,181.60043L256.1836,181.96034L256.7776,183.274L256.7776,183.32799
			L256.7776,183.86785L256.8226,183.82286L258.32559,182.43722L258.44259,182.55419L258.77559,185.10953L258.80259,185.29848L258.51459,185.2445
			L258.20859,185.18151L258.15459,185.18151L257.96559,185.18151L257.65959,185.48744L257.61459,185.54142L257.25459,185.89233
			L257.13759,186.25224L257.13759,186.61215L256.7776,187.08902L255.8596,186.98105L255.7066,186.97205L254.75261,187.68287L254.70761,187.73686
			L254.50961,188.04278L254.39261,188.40269L254.32061,188.41169L253.79861,188.51966L253.32162,188.51966L253.20462,188.29472
			L253.19562,188.27672L251.28763,184.70464L251.28763,184.4707L251.28763,184.4617L251.64762,184.11079L252.00762,183.63391L252.19662,183.15703
			L252.24162,183.03107L252.12462,182.79713L251.89062,182.55419L252.00762,182.43722L252.48462,182.07731L252.61962,182.01433
			L252.71862,181.96034L253.19562,182.68016L253.50161,182.47321L253.55561,182.43722L254.37461,181.96934L254.39261,181.96034
			L255.18461,181.51046L255.22961,181.48346"/>
		<path clip-path="url(#SVG_CP_1)" fill="none" stroke="#000000" stroke-width="0.03" stroke-miterlimit="10" stroke-linecap="round" stroke-linejoin="round" d="
			M251.64762,177.74042L251.96262,177.99236L252.24162,177.90238L253.67261,178.00135L253.96061,177.80341L254.73461,178.35226
			L254.50961,178.26229L254.14961,178.6222L253.91561,179.20705L253.91561,179.21604L253.84361,179.31502L253.46562,179.89087L
			253.43862,179.93586L253.19562,180.29577L253.16862,180.32276L252.96162,180.52971L252.36762,180.77264L252.33162,180.78164L
			251.89062,181.00658L251.17063,180.77264L250.99063,180.9526L250.93663,181.00658L250.69363,181.24952L249.98263,181.60043L249.98263,182.1313
			L249.98263,182.20328L249.98263,182.9141L249.85663,183.15703L249.62264,183.15703L249.02864,182.79713L248.59664,182.68915L
			248.48864,182.44622L248.83964,181.61843L248.74964,181.3395L248.83964,181.21353L249.31664,181.14155L249.54164,180.58369L250.06363,180.26877
			L249.98263,179.49497L249.94663,179.35101L249.91063,179.24304L249.80264,179.0001L249.61364,178.55021L249.39764,178.18131L
			249.29864,177.77641L249.59564,177.59646L250.41463,177.38051L250.73863,177.18256L251.12563,176.82266L251.51263,176.81366L
			251.50363,177.48849L251.64762,177.74042"/>
		<path clip-path="url(#SVG_CP_1)" fill="none" stroke="#000000" stroke-width="0.03" stroke-miterlimit="10" stroke-linecap="round" stroke-linejoin="round" d="
			M247.89465,177.63245L248.17364,177.88438L248.81264,177.93837L249.29864,177.77641L249.39764,178.18131L249.61364,178.55021
			L249.80264,179.0001L248.52464,179.25203L247.79565,179.18905L247.74165,179.72891L246.30165,179.7739L245.86966,179.96285L245.45566,179.98984
			L245.43766,180.44873L244.59166,180.5477L244.33066,180.51171L244.22267,180.41274L244.15067,179.49497L244.49266,179.44998L
			244.41166,178.24429L244.75366,178.23529L244.76266,177.89338L245.25766,177.92937L245.18566,178.11832L245.23966,178.13632L
			246.11266,177.78541L246.12166,177.8124L247.46265,177.38951L247.89465,177.63245"/>
		<path clip-path="url(#SVG_CP_1)" fill="#FFAAAA" fill-opacity="0.5" stroke="#000000" stroke-width="0.03" stroke-miterlimit="10" stroke-linecap="round" stroke-linejoin="round" d="
			M249.91063,179.24304L249.94663,179.35101L249.98263,179.49497L250.06363,180.26877L249.54164,180.58369L249.31664,181.14155
			L248.83964,181.21353L248.74964,181.3395L248.83964,181.61843L248.48864,182.44622L248.59664,182.68915L248.55164,182.68016L
			247.47165,182.68016L247.43565,182.68016L247.12065,182.68016L247.10265,182.68016L246.40065,182.68016L246.39165,182.68016L
			245.36566,182.68016L245.32966,182.68016L245.32966,181.60043L244.37566,181.60043L244.01567,181.7264L244.01567,181.96034L242.22468,182.20328
			L242.10768,181.96034L242.08068,181.94234L242.35968,181.53745L242.62067,181.44747L244.15067,181.28551L244.42966,181.07857
			L244.60066,180.78164L244.59166,180.59269L244.59166,180.5477L245.43766,180.44873L245.45566,179.98984L245.86966,179.96285L
			246.30165,179.7739L247.74165,179.72891L247.79565,179.18905L248.52464,179.25203L249.80264,179.0001L249.91063,179.24304"/>
       </g>
<g transform="matrix(16.4745852065547,0,0,16.4745852065547,-3846.67580212925,-2706.83370187591)" id="brt_2008_gen">
		<path clip-path="url(#SVG_CP_1)" fill="none" stroke="#000000" stroke-width="0.029" stroke-miterlimit="10" stroke-linecap="round" stroke-linejoin="round" d="
			M248.56064,176.6697L248.44364,176.69669L248.31764,176.46275L248.37164,175.91389L248.88464,175.39202L249.19064,175.44601L
			248.56064,176.6697"/>
		<path clip-path="url(#SVG_CP_1)" fill="none" stroke="#000000" stroke-width="0.029" stroke-miterlimit="10" stroke-linecap="round" stroke-linejoin="round" d="
			M249.40664,175.03212L249.19064,175.44601L248.88464,175.39202L248.37164,175.91389L248.31764,176.46275L248.44364,176.69669
			L248.56064,176.6697L248.59664,176.67869L248.58764,176.90364L248.02064,176.73268L247.93965,176.49874L248.07464,175.72494L
			248.44364,175.16708L248.83964,174.68121L249.08264,174.88815L249.40664,175.03212"/>
		<path clip-path="url(#SVG_CP_1)" fill="none" stroke="#000000" stroke-width="0.029" stroke-miterlimit="10" stroke-linecap="round" stroke-linejoin="round" d="
			M248.02064,176.73268L247.66065,176.99361L247.52565,176.84065L247.57065,175.68895L247.99364,174.94214L248.44364,175.16708
			L248.07464,175.72494L247.93965,176.49874L248.02064,176.73268"/>
		<path clip-path="url(#SVG_CP_1)" fill="none" stroke="#000000" stroke-width="0.029" stroke-miterlimit="10" stroke-linecap="round" stroke-linejoin="round" d="
			M249.01964,176.90364L249.14564,177.29054L248.60564,177.4525L247.94865,177.29953L247.66065,176.99361L248.02064,176.73268L
			248.58764,176.90364L248.59664,176.67869L248.93864,176.75967L249.01964,176.90364"/>
		<path clip-path="url(#SVG_CP_1)" fill="none" stroke="#000000" stroke-width="0.029" stroke-miterlimit="10" stroke-linecap="round" stroke-linejoin="round" d="
			M249.41564,176.77767L249.01964,176.90364L248.93864,176.75967L248.59664,176.67869L248.56064,176.6697L249.19064,175.44601L
			249.40664,175.03212L249.82963,175.02312L249.89263,175.482L250.02763,175.8689L250.01863,176.15683L249.72164,176.45375L249.41564,176.77767
			"/>
		<path clip-path="url(#SVG_CP_1)" fill="none" stroke="#000000" stroke-width="0.029" stroke-miterlimit="10" stroke-linecap="round" stroke-linejoin="round" d="
			M248.83964,174.68121L248.44364,175.16708L247.99364,174.94214L247.47165,174.44727L247.54365,174.28531L247.69665,173.89841
			L248.22764,173.88941L248.59664,173.84442L248.70464,174.55524L248.83964,174.68121"/>
		<path clip-path="url(#SVG_CP_1)" fill="none" stroke="#000000" stroke-width="0.029" stroke-miterlimit="10" stroke-linecap="round" stroke-linejoin="round" d="
			M247.52565,176.84065L247.23765,177.00261L247.10265,176.75967L247.03965,176.52573L246.85965,176.07585L246.93165,175.8779L
			247.28265,174.75319L247.47165,174.44727L247.99364,174.94214L247.57065,175.68895L247.52565,176.84065"/>
		<path clip-path="url(#SVG_CP_1)" fill="none" stroke="#000000" stroke-width="0.029" stroke-miterlimit="10" stroke-linecap="round" stroke-linejoin="round" d="
			M247.94865,177.29953L248.60564,177.4525L249.14564,177.29054L249.29864,177.77641L248.81264,177.93837L248.17364,177.88438L
			247.89465,177.63245L247.46265,177.38951L247.24665,177.08359L247.23765,177.00261L247.52565,176.84065L247.66065,176.99361L
			247.94865,177.29953"/>
		<path clip-path="url(#SVG_CP_1)" fill="none" stroke="#000000" stroke-width="0.029" stroke-miterlimit="10" stroke-linecap="round" stroke-linejoin="round" d="
			M249.59564,177.59646L249.29864,177.77641L249.14564,177.29054L249.01964,176.90364L249.41564,176.77767L249.72164,176.45375
			L250.68463,177.00261L250.62163,177.06559L250.73863,177.18256L250.41463,177.38051L249.59564,177.59646"/>
		<path clip-path="url(#SVG_CP_1)" fill="none" stroke="#000000" stroke-width="0.029" stroke-miterlimit="10" stroke-linecap="round" stroke-linejoin="round" d="
			M251.12563,176.82266L250.73863,177.18256L250.62163,177.06559L250.68463,177.00261L249.72164,176.45375L250.01863,176.15683
			L250.02763,175.8689L249.89263,175.482L250.84663,175.67095L251.40463,175.93189L251.56663,176.12983L251.61163,176.36377L251.51263,176.81366
			L251.12563,176.82266"/>
		<path clip-path="url(#SVG_CP_1)" fill="none" stroke="#000000" stroke-width="0.029" stroke-miterlimit="10" stroke-linecap="round" stroke-linejoin="round" d="
			M236.86071,168.37382L238.1747,168.60776L238.6517,168.60776L239.48869,168.72473L239.52469,168.73373L241.71168,169.19261L241.74768,169.20161
			L242.99867,169.54352L243.06167,169.56152L244.25867,169.80446L244.30367,169.81345L245.44666,170.15537L245.44666,170.0384L
			246.08566,170.37131L247.84065,172.26982L247.68765,172.44978L247.00365,173.08861L246.64365,172.96265L246.17565,173.26857L
			246.10366,173.30456L245.75266,172.99864L245.49166,172.95365L244.41166,172.98964L243.91667,172.79169L243.76367,172.89966L
			243.76367,173.02563L241.29768,173.01663L241.07268,172.38679L240.83868,172.26083L240.54169,172.34181L238.3457,172.32381L237.4997,172.14386
			L237.4277,172.65673L235.06972,172.18885L235.90671,168.13089L236.82471,168.36483L236.86071,168.37382"/>
		<path clip-path="url(#SVG_CP_1)" fill="none" stroke="#000000" stroke-width="0.029" stroke-miterlimit="10" stroke-linecap="round" stroke-linejoin="round" d="
			M238.3457,172.32381L240.54169,172.34181L240.83868,172.26083L241.07268,172.38679L241.29768,173.01663L243.76367,173.02563L
			243.76367,172.89966L243.91667,172.79169L244.41166,172.98964L245.49166,172.95365L245.49166,173.38554L245.64466,173.50251L
			245.64466,173.82643L244.47466,173.81743L244.48366,174.3123L244.44766,174.3123L244.00667,174.3213L243.38567,174.33929L243.39467,173.99738
			L242.35968,173.96139L242.35968,173.74545L238.3547,173.71845L238.2917,173.82643L238.0757,173.88041L237.4547,173.87141L237.4547,173.20558
			L237.4547,172.66572L237.4277,172.65673L237.4997,172.14386L238.3457,172.32381"/>
		<path clip-path="url(#SVG_CP_1)" fill="none" stroke="#000000" stroke-width="0.029" stroke-miterlimit="10" stroke-linecap="round" stroke-linejoin="round" d="
			M247.68765,172.44978L248.36264,173.24158L248.59664,173.84442L248.22764,173.88941L248.23664,173.67346L247.16565,173.46652
			L247.03965,173.29556L246.17565,173.26857L246.64365,172.96265L247.00365,173.08861L247.68765,172.44978"/>
		<path clip-path="url(#SVG_CP_1)" fill="none" stroke="#000000" stroke-width="0.029" stroke-miterlimit="10" stroke-linecap="round" stroke-linejoin="round" d="
			M245.75266,172.99864L246.10366,173.30456L246.17565,173.26857L247.03965,173.29556L247.16565,173.46652L248.23664,173.67346
			L248.22764,173.88941L247.69665,173.89841L247.54365,174.28531L246.46365,174.26731L246.06766,174.27631L245.95066,173.9254L
			246.10366,173.9254L246.11266,173.82643L245.64466,173.82643L245.64466,173.50251L245.49166,173.38554L245.49166,172.95365L245.75266,172.99864
			"/>
		<path clip-path="url(#SVG_CP_1)" fill="none" stroke="#000000" stroke-width="0.029" stroke-miterlimit="10" stroke-linecap="round" stroke-linejoin="round" d="
			M246.82365,174.92414L246.52665,175.53599L246.33765,174.72619L246.55365,174.66321L246.46365,174.26731L247.54365,174.28531
			L247.47165,174.44727L247.28265,174.75319L246.82365,174.92414"/>
		<path clip-path="url(#SVG_CP_1)" fill="none" stroke="#000000" stroke-width="0.029" stroke-miterlimit="10" stroke-linecap="round" stroke-linejoin="round" d="
			M246.52665,175.53599L246.28365,175.98587L246.05866,175.60797L245.73466,174.27631L246.06766,174.27631L246.46365,174.26731
			L246.55365,174.66321L246.33765,174.72619L246.52665,175.53599"/>
		<path clip-path="url(#SVG_CP_1)" fill="none" stroke="#000000" stroke-width="0.029" stroke-miterlimit="10" stroke-linecap="round" stroke-linejoin="round" d="
			M246.27465,176.08485L246.19365,176.11184L246.28365,175.98587L246.52665,175.53599L246.82365,174.92414L247.28265,174.75319
			L246.93165,175.8779L246.27465,176.08485"/>
		<path clip-path="url(#SVG_CP_1)" fill="none" stroke="#000000" stroke-width="0.029" stroke-miterlimit="10" stroke-linecap="round" stroke-linejoin="round" d="
			M247.03965,176.52573L246.55365,176.74168L246.27465,176.08485L246.93165,175.8779L246.85965,176.07585L247.03965,176.52573"/>
		<path clip-path="url(#SVG_CP_1)" fill="none" stroke="#000000" stroke-width="0.029" stroke-miterlimit="10" stroke-linecap="round" stroke-linejoin="round" d="
			M246.55365,176.74168L245.68066,177.0296L246.19365,176.11184L246.27465,176.08485L246.55365,176.74168"/>
		<path clip-path="url(#SVG_CP_1)" fill="none" stroke="#000000" stroke-width="0.029" stroke-miterlimit="10" stroke-linecap="round" stroke-linejoin="round" d="
			M245.97766,177.23655L245.45566,177.4345L245.61766,177.14657L245.68066,177.0296L246.55365,176.74168L247.03965,176.52573L247.10265,176.75967
			L245.97766,177.23655"/>
		<path clip-path="url(#SVG_CP_1)" fill="none" stroke="#000000" stroke-width="0.029" stroke-miterlimit="10" stroke-linecap="round" stroke-linejoin="round" d="
			M247.24665,177.08359L246.12166,177.60546L245.97766,177.23655L247.10265,176.75967L247.23765,177.00261L247.24665,177.08359
			"/>
		<path clip-path="url(#SVG_CP_1)" fill="none" stroke="#000000" stroke-width="0.029" stroke-miterlimit="10" stroke-linecap="round" stroke-linejoin="round" d="
			M246.11266,177.78541L245.23966,178.13632L245.18566,178.11832L245.25766,177.92937L245.45566,177.4345L245.97766,177.23655L
			246.12166,177.60546L246.11266,177.78541"/>
		<path clip-path="url(#SVG_CP_1)" fill="none" stroke="#000000" stroke-width="0.029" stroke-miterlimit="10" stroke-linecap="round" stroke-linejoin="round" d="
			M247.46265,177.38951L246.12166,177.8124L246.11266,177.78541L246.12166,177.60546L247.24665,177.08359L247.46265,177.38951"/>
		<path clip-path="url(#SVG_CP_1)" fill="none" stroke="#000000" stroke-width="0.029" stroke-miterlimit="10" stroke-linecap="round" stroke-linejoin="round" d="
			M252.24162,177.90238L251.96262,177.99236L251.64762,177.74042L251.50363,177.48849L251.51263,176.81366L252.13362,176.80466
			L252.24162,177.90238"/>
		<path clip-path="url(#SVG_CP_1)" fill="none" stroke="#000000" stroke-width="0.029" stroke-miterlimit="10" stroke-linecap="round" stroke-linejoin="round" d="
			M253.96061,177.80341L253.67261,178.00135L252.24162,177.90238L252.13362,176.80466L252.97062,176.80466L253.51961,176.58872
			L253.78061,177.53347L253.96061,177.80341"/>
		<path clip-path="url(#SVG_CP_1)" fill="none" stroke="#000000" stroke-width="0.029" stroke-miterlimit="10" stroke-linecap="round" stroke-linejoin="round" d="
			M252.13362,176.80466L251.51263,176.81366L251.61163,176.36377L251.56663,176.12983L251.40463,175.93189L250.84663,175.67095
			L249.89263,175.482L249.82963,175.02312L250.54963,174.92414L251.49463,174.77118L253.19562,174.76219L253.78961,174.84316L253.69061,174.91515
			L253.30362,175.57198L253.51961,176.58872L252.97062,176.80466L252.13362,176.80466"/>
		<path clip-path="url(#SVG_CP_1)" fill="none" stroke="#000000" stroke-width="0.029" stroke-miterlimit="10" stroke-linecap="round" stroke-linejoin="round" d="
			M254.98661,177.91138L255.3466,178.02835L255.8236,177.91138L255.9316,177.79441L255.8956,178.28028L256.8226,179.09008L256.8946,179.47698
			L257.22759,179.7559L257.56059,179.86388L258.05559,179.73791L257.73159,180.1698L256.9126,180.1698L256.8946,180.1698L256.0666,179.46798
			L256.0576,179.45898L255.6616,179.05408L255.14861,178.54122L255.10361,178.50523L254.73461,178.35226L253.96061,177.80341L253.78061,177.53347
			L253.51961,176.58872L253.30362,175.57198L253.69061,174.91515L253.78961,174.84316L253.83461,174.86116L253.79861,174.92414
			L253.79861,175.16708L255.4636,176.48074L255.5806,176.59771L255.5626,176.59771L255.3466,176.59771L254.50961,176.59771L253.67261,176.59771
			L253.67261,176.95762L253.91561,177.19156L254.98661,177.91138"/>
		<path clip-path="url(#SVG_CP_1)" fill="none" stroke="#000000" stroke-width="0.029" stroke-miterlimit="10" stroke-linecap="round" stroke-linejoin="round" d="
			M257.54259,178.44224L257.47059,178.55021L257.35359,178.45124L256.8226,179.09008L255.8956,178.28028L255.9316,177.79441L255.9406,177.78541
			L256.4176,177.55147L257.48859,178.38826L257.54259,178.44224M256.4176,177.19156L255.4636,177.91138L254.98661,177.66844L254.98661,177.4345
			L255.22961,177.07459L255.7066,177.07459L255.8236,176.83165L256.3006,177.07459L256.4176,177.19156M256.6246,176.85865L256.6426,176.85865
			L256.6606,176.85865L256.6876,176.85865L256.7146,176.85865L256.7326,176.85865L256.7506,176.85865L256.7686,176.85865L256.7776,176.85865
			L256.8136,176.85865L256.8586,176.85865L256.8676,176.85865L256.8766,176.85865L256.9216,176.84965L256.9306,176.84965L256.9486,176.84965
			L256.9666,176.84065L256.9846,176.84065L257.0026,176.84065L257.0206,176.83165L257.0296,176.83165L257.0566,176.83165L257.0656,176.83165
			L257.0836,176.82266L257.1106,176.82266L257.1196,176.82266L257.13759,176.82266L257.15559,176.81366L257.17359,176.81366L257.19159,176.81366
			L257.20959,176.80466L257.22759,176.80466L257.23659,176.81366L257.21859,176.82266L257.15559,176.83165L257.0476,176.84965L
			256.9306,176.86765L256.8586,176.86765L256.7596,176.87664L256.6606,176.87664L256.6156,176.87664L256.5616,176.87664L256.5436,176.87664
			L256.5166,176.86765L256.4896,176.86765L256.4806,176.86765L256.4716,176.86765L256.4626,176.86765L256.4536,176.86765L256.4356,176.86765
			L256.4176,176.85865L256.3996,176.85865L256.3816,176.85865L256.3456,176.84965L256.3366,176.84965L256.3186,176.84965L256.3006,176.84965
			L256.2826,176.84065L256.2736,176.84065L256.2646,176.84065L256.2556,176.84065L256.2466,176.83165L256.2376,176.83165L256.2196,176.83165
			L256.2016,176.82266L256.1926,176.82266L256.1836,176.82266L256.1656,176.81366L256.1476,176.81366L256.1296,176.81366L256.1206,176.80466
			L256.0936,176.80466L256.0936,176.79566L256.0576,176.79566L255.9856,176.76867L255.8866,176.74168L255.8506,176.72368L255.7966,176.70569
			L255.7516,176.68769L255.7246,176.67869L255.6616,176.6517L255.5986,176.61571L255.5626,176.59771L255.5806,176.59771L255.5896,176.59771
			L255.6166,176.61571L255.6256,176.61571L255.6346,176.61571L255.6616,176.63371L255.6796,176.6427L255.6976,176.6517L255.7066,176.6517
			L255.7336,176.6607L255.7606,176.67869L255.7966,176.68769L255.8056,176.69669L255.8506,176.71468L255.8776,176.72368L255.8866,176.73268
			L255.9046,176.73268L255.9136,176.73268L255.9226,176.74168L255.9316,176.74168L255.9496,176.75068L255.9586,176.75068L255.9676,176.75068
			L255.9766,176.75967L255.9856,176.75967L255.9946,176.75967L256.0216,176.76867L256.0396,176.77767L256.0576,176.77767L256.0756,176.78667
			L256.0936,176.78667L256.1026,176.79566L256.1116,176.79566L256.1386,176.79566L256.1476,176.80466L256.1566,176.80466L256.1746,176.81366
			L256.2016,176.81366L256.2106,176.81366L256.2286,176.82266L256.2466,176.82266L256.2556,176.82266L256.2646,176.82266L256.2736,176.83165
			L256.2916,176.83165L256.3006,176.83165L256.3096,176.83165L256.3186,176.83165L256.3276,176.84065L256.3366,176.84065L256.3546,176.84065
			L256.3726,176.84065L256.3816,176.84065L256.3906,176.84965L256.4086,176.84965L256.4176,176.84965L256.4356,176.84965L256.4446,176.84965
			L256.4626,176.84965L256.4716,176.85865L256.4806,176.85865L256.4896,176.85865L256.5256,176.85865L256.5616,176.85865L256.5706,176.85865
			L256.5886,176.85865L256.6066,176.85865L256.6156,176.85865L256.6246,176.85865"/>
		<path clip-path="url(#SVG_CP_1)" fill="none" stroke="#000000" stroke-width="0.029" stroke-miterlimit="10" stroke-linecap="round" stroke-linejoin="round" d="
			M257.54259,178.44224L258.32559,179.34201L258.09159,179.69292L258.05559,179.73791L257.56059,179.86388L257.22759,179.7559L
			256.8946,179.47698L256.8226,179.09008L257.35359,178.45124L257.47059,178.55021L257.54259,178.44224"/>
		<path clip-path="url(#SVG_CP_1)" fill="none" stroke="#000000" stroke-width="0.029" stroke-miterlimit="10" stroke-linecap="round" stroke-linejoin="round" d="
			M258.19059,176.6607L258.19959,176.6607L258.20859,176.6607L258.21759,176.6607L258.22659,176.6607L258.22659,176.6697L258.21759,176.6697
			L258.20859,176.6697L258.19959,176.6697L258.19059,176.67869L258.19059,176.68769L258.18159,176.68769L258.18159,176.67869L257.75859,176.74168
			L257.56059,176.76867L257.46159,176.78667L257.25459,176.81366L257.23659,176.81366L257.22759,176.80466L257.23659,176.80466
			L257.26359,176.79566L257.29059,176.79566L257.29959,176.79566L257.31759,176.79566L257.33559,176.78667L257.34459,176.78667
			L257.36259,176.78667L257.37159,176.78667L257.38959,176.77767L257.40759,176.77767L257.42559,176.77767L257.43459,176.77767
			L257.45259,176.76867L257.46159,176.76867L257.76759,176.72368L257.78559,176.72368L257.81259,176.71468L257.83959,176.71468
			L257.87559,176.70569L257.89359,176.70569L257.92959,176.70569L257.95659,176.69669L257.98359,176.69669L258.01059,176.68769
			L258.04659,176.68769L258.05559,176.67869L258.06459,176.67869L258.07359,176.67869L258.08259,176.67869L258.09159,176.67869
			L258.10959,176.67869L258.11859,176.67869L258.12759,176.6697L258.13659,176.6697L258.16359,176.6697L258.17259,176.6697L258.18159,176.6697
			L258.18159,176.6607L258.18159,176.6517L258.19059,176.6607"/>
		<path clip-path="url(#SVG_CP_1)" fill="none" stroke="#000000" stroke-width="0.029" stroke-miterlimit="10" stroke-linecap="round" stroke-linejoin="round" d="
			M245.73466,174.27631L244.48366,174.3123L244.47466,173.81743L245.64466,173.82643L246.11266,173.82643L246.10366,173.9254L245.95066,173.9254
			L246.06766,174.27631L245.73466,174.27631"/>
		<path clip-path="url(#SVG_CP_1)" fill="none" stroke="#000000" stroke-width="0.029" stroke-miterlimit="10" stroke-linecap="round" stroke-linejoin="round" d="
			M245.73466,174.27631L246.05866,175.60797L245.32066,175.73394L245.26666,175.44601L245.42866,175.41002L245.26666,175.01412
			L244.57366,175.28405L244.40266,175.25706L244.44766,174.3123L244.48366,174.3123L245.73466,174.27631"/>
		<path clip-path="url(#SVG_CP_1)" fill="none" stroke="#000000" stroke-width="0.029" stroke-miterlimit="10" stroke-linecap="round" stroke-linejoin="round" d="
			M245.32066,175.73394L244.60966,176.00387L244.50166,175.61697L244.65466,175.57198L244.57366,175.28405L245.26666,175.01412
			L245.42866,175.41002L245.26666,175.44601L245.32066,175.73394"/>
		<path clip-path="url(#SVG_CP_1)" fill="none" stroke="#000000" stroke-width="0.029" stroke-miterlimit="10" stroke-linecap="round" stroke-linejoin="round" d="
			M244.60966,176.00387L244.24067,176.03086L243.67367,175.8869L243.79067,175.46401L244.00667,174.3213L244.44766,174.3123L244.40266,175.25706
			L244.57366,175.28405L244.65466,175.57198L244.50166,175.61697L244.60966,176.00387"/>
		<path clip-path="url(#SVG_CP_1)" fill="none" stroke="#000000" stroke-width="0.029" stroke-miterlimit="10" stroke-linecap="round" stroke-linejoin="round" d="
			M245.68066,177.0296L245.61766,177.14657L245.51866,177.07459L245.40166,176.16583L245.32066,175.73394L246.05866,175.60797L
			246.28365,175.98587L246.19365,176.11184L245.68066,177.0296"/>
		<path clip-path="url(#SVG_CP_1)" fill="none" stroke="#000000" stroke-width="0.029" stroke-miterlimit="10" stroke-linecap="round" stroke-linejoin="round" d="
			M244.74466,176.34578L244.23167,176.39977L244.24067,176.03086L244.60966,176.00387L245.32066,175.73394L245.40166,176.16583
			L244.74466,176.34578"/>
		<path clip-path="url(#SVG_CP_1)" fill="none" stroke="#000000" stroke-width="0.029" stroke-miterlimit="10" stroke-linecap="round" stroke-linejoin="round" d="
			M245.51866,177.07459L244.87066,177.19156L244.90666,176.93063L244.74466,176.34578L245.40166,176.16583L245.51866,177.07459
			"/>
		<path clip-path="url(#SVG_CP_1)" fill="none" stroke="#000000" stroke-width="0.029" stroke-miterlimit="10" stroke-linecap="round" stroke-linejoin="round" d="
			M245.45566,177.4345L245.25766,177.92937L244.76266,177.89338L244.87066,177.19156L245.51866,177.07459L245.61766,177.14657L
			245.45566,177.4345"/>
		<path clip-path="url(#SVG_CP_1)" fill="none" stroke="#000000" stroke-width="0.029" stroke-miterlimit="10" stroke-linecap="round" stroke-linejoin="round" d="
			M250.76563,172.81868L250.41463,173.73645L250.08163,174.12335L249.08264,174.88815L248.83964,174.68121L249.10964,174.60922
			L249.43364,174.37528L249.53264,174.18633L249.43364,173.63747L249.64064,173.25957L249.96463,173.43952L250.01863,173.34955
			L249.63164,172.21584L250.15363,172.25183L250.68463,172.49477L250.76563,172.81868"/>
		<path clip-path="url(#SVG_CP_1)" fill="none" stroke="#000000" stroke-width="0.029" stroke-miterlimit="10" stroke-linecap="round" stroke-linejoin="round" d="
			M250.81063,172.7467L250.96363,173.61048L251.64762,173.5205L252.16962,173.62848L252.07062,174.15034L251.62063,174.02437L251.35063,174.05137
			L251.22463,174.24032L250.88263,174.02437L250.46863,174.28531L250.54963,174.92414L249.82963,175.02312L249.40664,175.03212
			L249.08264,174.88815L250.08163,174.12335L250.41463,173.73645L250.76563,172.81868L250.68463,172.49477L250.81063,172.7467"/>
		<path clip-path="url(#SVG_CP_1)" fill="none" stroke="#000000" stroke-width="0.029" stroke-miterlimit="10" stroke-linecap="round" stroke-linejoin="round" d="
			M253.14162,173.55649L253.19562,174.15034L252.84462,174.13235L252.35862,173.57449L251.79162,173.30456L252.27762,173.12461
			L253.14162,173.55649"/>
		<path clip-path="url(#SVG_CP_1)" fill="none" stroke="#000000" stroke-width="0.029" stroke-miterlimit="10" stroke-linecap="round" stroke-linejoin="round" d="
			M251.55763,173.46652L250.98163,173.5385L250.93663,173.00764L251.67462,173.30456L251.55763,173.46652"/>
		<path clip-path="url(#SVG_CP_1)" fill="none" stroke="#000000" stroke-width="0.029" stroke-miterlimit="10" stroke-linecap="round" stroke-linejoin="round" d="
			M250.93663,173.00764L250.98163,173.5385L251.55763,173.46652L251.67462,173.30456L251.79162,173.30456L252.35862,173.57449L
			252.84462,174.13235L253.19562,174.15034L253.19562,174.20433L252.58362,174.29431L252.07062,174.15034L252.16962,173.62848L
			251.64762,173.5205L250.96363,173.61048L250.81063,172.7467L250.68463,172.49477L250.15363,172.25183L250.14463,172.17985L250.35163,172.22484
			L250.76563,172.45878L250.93663,173.00764"/>
		<path clip-path="url(#SVG_CP_1)" fill="none" stroke="#000000" stroke-width="0.029" stroke-miterlimit="10" stroke-linecap="round" stroke-linejoin="round" d="
			M247.30965,169.81345L247.80465,170.38931L248.72264,170.29933L249.55064,171.31607L249.49664,171.51402L249.13664,171.86493
			L248.94764,172.14386L248.43464,171.74796L248.36264,171.43304L246.95865,170.33532L246.92265,170.21835L247.19265,169.84045
			L247.30965,169.81345"/>
		<path clip-path="url(#SVG_CP_1)" fill="none" stroke="#000000" stroke-width="0.029" stroke-miterlimit="10" stroke-linecap="round" stroke-linejoin="round" d="
			M246.76065,168.37382L247.12065,168.96767L248.30864,168.96767L248.87564,169.07564L248.83964,170.17336L248.72264,170.29933
			L247.80465,170.38931L247.30965,169.81345L247.19265,169.84045L246.92265,170.21835L246.76965,170.20935L246.36465,169.92143
			L246.08566,170.37131L245.44666,170.0384L245.68966,169.67849L245.56366,169.08464L245.92366,168.37382L246.28365,168.24786L
			246.70665,168.35583L246.76065,168.37382"/>
		<path clip-path="url(#SVG_CP_1)" fill="none" stroke="#000000" stroke-width="0.029" stroke-miterlimit="10" stroke-linecap="round" stroke-linejoin="round" d="
			M249.69464,171.30707L249.55064,171.31607L248.72264,170.29933L248.83964,170.17336L248.87564,169.07564L248.90264,169.08464
			L249.57764,169.53453L249.62264,169.56152L250.57663,170.15537L250.62163,170.19136L249.99163,171.02814L249.69464,171.30707
			"/>
		<path clip-path="url(#SVG_CP_1)" fill="none" stroke="#000000" stroke-width="0.029" stroke-miterlimit="10" stroke-linecap="round" stroke-linejoin="round" d="
			M253.15962,172.03588L253.40262,172.25183L253.63661,172.21584L253.72661,172.06288L254.14961,172.48577L254.69861,173.51151
			L254.51861,173.67346L253.19562,174.20433L253.19562,174.15034L253.14162,173.55649L252.27762,173.12461L252.58362,172.66572
			L252.73662,172.66572L253.15962,172.03588"/>
		<path clip-path="url(#SVG_CP_1)" fill="none" stroke="#000000" stroke-width="0.029" stroke-miterlimit="10" stroke-linecap="round" stroke-linejoin="round" d="
			M252.42162,170.54227L252.57462,170.92017L252.99762,171.33406L253.69961,171.62199L253.78961,171.9639L253.72661,172.06288L
			253.63661,172.21584L253.40262,172.25183L253.15962,172.03588L252.73662,172.66572L252.58362,172.66572L252.27762,173.12461L
			251.79162,173.30456L251.67462,173.30456L250.93663,173.00764L250.76563,172.45878L251.00863,171.74796L251.00863,171.44204L
			251.47663,170.83019L251.53063,170.87518L252.42162,170.54227"/>
		<path clip-path="url(#SVG_CP_1)" fill="none" stroke="#000000" stroke-width="0.029" stroke-miterlimit="10" stroke-linecap="round" stroke-linejoin="round" d="
			M251.00863,171.74796L250.76563,172.45878L250.35163,172.22484L250.14463,172.17985L250.15363,172.25183L249.63164,172.21584
			L249.13664,171.86493L249.49664,171.51402L249.55064,171.31607L249.69464,171.30707L249.99163,171.02814L250.62163,170.19136
			L251.47663,170.83019L251.00863,171.44204L251.00863,171.74796"/>
		<path clip-path="url(#SVG_CP_1)" fill="none" stroke="#000000" stroke-width="0.029" stroke-miterlimit="10" stroke-linecap="round" stroke-linejoin="round" d="
			M248.43464,171.74796L248.94764,172.14386L249.13664,171.86493L249.63164,172.21584L250.01863,173.34955L249.96463,173.43952
			L249.64064,173.25957L249.43364,173.63747L249.53264,174.18633L249.43364,174.37528L249.10964,174.60922L248.83964,174.68121
			L248.70464,174.55524L248.59664,173.84442L248.36264,173.24158L247.68765,172.44978L247.84065,172.26982L246.08566,170.37131
			L246.36465,169.92143L246.76965,170.20935L246.92265,170.21835L246.95865,170.33532L248.36264,171.43304L248.43464,171.74796
			"/>
		<path clip-path="url(#SVG_CP_1)" fill="none" stroke="#000000" stroke-width="0.029" stroke-miterlimit="10" stroke-linecap="round" stroke-linejoin="round" d="
			M250.88263,174.02437L251.22463,174.24032L251.35063,174.05137L251.62063,174.02437L252.07062,174.15034L252.58362,174.29431
			L253.19562,174.20433L253.19562,174.76219L251.49463,174.77118L250.54963,174.92414L250.46863,174.28531L250.88263,174.02437
			"/>
		<path clip-path="url(#SVG_CP_1)" fill="none" stroke="#000000" stroke-width="0.029" stroke-miterlimit="10" stroke-linecap="round" stroke-linejoin="round" d="
			M255.7066,168.8507L256.0576,169.32758L256.1836,169.32758L256.3006,169.08464L257.13759,169.08464L258.56859,169.92143L258.68559,169.80446
			L258.80259,169.67849L258.81159,169.68749L259.39658,169.80446L259.75658,170.28133L260.30558,170.16436L260.35058,170.15537
			L261.07057,170.3983L261.78157,170.28133L262.38457,170.15537L262.61857,170.28133L262.50157,170.63224L261.78157,170.51527L
			261.30457,170.63224L260.82757,171.46903L260.23358,171.82894L259.63958,172.30582L259.39658,172.66572L259.16258,173.85342L
			258.56859,174.21333L258.09159,174.57323L258.20859,175.16708L258.09159,175.8779L257.73159,176.00387L257.13759,175.76093L256.8946,175.16708
			L256.1836,175.40102L255.7066,175.8779L255.4636,175.8779L254.86961,175.05011L254.03261,174.57323L253.83461,174.86116L253.78961,174.84316
			L253.19562,174.76219L253.19562,174.20433L254.51861,173.67346L254.69861,173.51151L254.14961,172.48577L253.72661,172.06288
			L253.78961,171.9639L253.69961,171.62199L252.99762,171.33406L252.57462,170.92017L252.42162,170.54227L252.48462,170.51527L
			252.60162,170.3983L252.84462,169.56152L254.86961,169.32758L255.10361,169.20161L255.13961,169.18362L255.7066,168.8507"/>
		<path clip-path="url(#SVG_CP_1)" fill="none" stroke="#000000" stroke-width="0.029" stroke-miterlimit="10" stroke-linecap="round" stroke-linejoin="round" d="
			M242.35968,173.74545L242.35968,173.96139L243.39467,173.99738L243.38567,174.33929L242.34168,174.3303L241.79268,174.3303L240.35269,174.36629
			L237.4547,174.35729L237.4547,174.3303L237.4547,173.87141L238.0757,173.88041L238.2917,173.82643L238.3547,173.71845L242.35968,173.74545
			"/>
		<path clip-path="url(#SVG_CP_1)" fill="none" stroke="#000000" stroke-width="0.029" stroke-miterlimit="10" stroke-linecap="round" stroke-linejoin="round" d="
			M244.00667,174.3213L243.79067,175.46401L242.65667,175.14909L242.35068,174.67221L242.34168,174.3303L243.38567,174.33929L244.00667,174.3213
			"/>
		<path clip-path="url(#SVG_CP_1)" fill="none" stroke="#000000" stroke-width="0.029" stroke-miterlimit="10" stroke-linecap="round" stroke-linejoin="round" d="
			M243.67367,175.8869L243.60167,176.2558L243.18767,176.22881L243.01667,176.02186L242.92667,176.08485L241.77468,177.68644L241.41468,176.67869
			L241.22568,175.92289L241.42368,175.96788L241.57668,174.91515L241.80168,174.88815L241.79268,174.3303L242.34168,174.3303L242.35068,174.67221
			L242.65667,175.14909L243.79067,175.46401L243.67367,175.8869"/>
		<path clip-path="url(#SVG_CP_1)" fill="none" stroke="#000000" stroke-width="0.029" stroke-miterlimit="10" stroke-linecap="round" stroke-linejoin="round" d="
			M241.57668,174.91515L241.42368,175.96788L241.22568,175.92289L240.23569,175.76993L240.05569,175.52699L240.29869,175.32004
			L240.35269,174.36629L241.79268,174.3303L241.80168,174.88815L241.57668,174.91515"/>
		<path clip-path="url(#SVG_CP_1)" fill="none" stroke="#000000" stroke-width="0.029" stroke-miterlimit="10" stroke-linecap="round" stroke-linejoin="round" d="
			M240.35269,174.36629L240.29869,175.32004L240.05569,175.52699L239.94769,175.44601L239.24569,176.29179L237.5807,174.73519L
			237.4187,174.92414L237.4547,174.80717L237.4547,174.35729L240.35269,174.36629"/>
		<path clip-path="url(#SVG_CP_1)" fill="none" stroke="#000000" stroke-width="0.029" stroke-miterlimit="10" stroke-linecap="round" stroke-linejoin="round" d="
			M237.5807,174.73519L239.24569,176.29179L239.94769,175.44601L240.05569,175.52699L240.23569,175.76993L241.22568,175.92289L
			241.41468,176.67869L240.41569,177.01161L239.71369,177.23655L239.46169,177.37152L238.89469,177.99236L238.1927,178.74816L238.1747,178.73917
			L237.2207,178.02835L237.3287,177.01161L237.3377,176.95762L237.4547,175.8779L237.3377,175.16708L237.4187,174.92414L237.5807,174.73519
			"/>
		<path clip-path="url(#SVG_CP_1)" fill="none" stroke="#000000" stroke-width="0.029" stroke-miterlimit="10" stroke-linecap="round" stroke-linejoin="round" d="
			M241.77468,177.68644L241.88268,177.88438L242.20668,177.77641L242.30568,177.84839L242.26068,178.11832L242.44968,178.72117
			L241.80168,178.71217L241.08168,178.94611L240.41569,177.01161L241.41468,176.67869L241.77468,177.68644"/>
		<path clip-path="url(#SVG_CP_1)" fill="none" stroke="#000000" stroke-width="0.029" stroke-miterlimit="10" stroke-linecap="round" stroke-linejoin="round" d="
			M240.60469,179.15306L240.41569,179.43199L240.12769,178.50523L239.71369,177.23655L240.41569,177.01161L241.08168,178.94611
			L240.60469,179.15306"/>
		<path clip-path="url(#SVG_CP_1)" fill="none" stroke="#000000" stroke-width="0.029" stroke-miterlimit="10" stroke-linecap="round" stroke-linejoin="round" d="
			M240.12769,178.50523L239.79469,178.5952L238.89469,177.99236L239.46169,177.37152L239.71369,177.23655L240.12769,178.50523"/>
		<path clip-path="url(#SVG_CP_1)" fill="none" stroke="#000000" stroke-width="0.029" stroke-miterlimit="10" stroke-linecap="round" stroke-linejoin="round" d="
			M238.89469,177.99236L239.79469,178.5952L240.12769,178.50523L240.41569,179.43199L240.60469,179.15306L240.78468,179.34201L
			240.70368,179.7829L240.91068,179.84588L240.88368,180.73665L240.70368,180.90761L240.67668,180.88961L240.59569,180.88961L240.55969,180.88961
			L240.08269,180.05283L238.6517,178.9821L238.6247,178.97311L238.1927,178.74816L238.89469,177.99236"/>
		<path clip-path="url(#SVG_CP_1)" fill="none" stroke="#000000" stroke-width="0.029" stroke-miterlimit="10" stroke-linecap="round" stroke-linejoin="round" d="
			M243.60167,176.2558L243.54767,177.90238L243.57467,179.53096L243.02567,179.53096L242.70167,179.64793L242.56667,179.42299L
			242.44968,178.72117L242.26068,178.11832L242.30568,177.84839L242.20668,177.77641L241.88268,177.88438L241.77468,177.68644L
			242.92667,176.08485L243.01667,176.02186L243.18767,176.22881L243.60167,176.2558"/>
		<path clip-path="url(#SVG_CP_1)" fill="none" stroke="#000000" stroke-width="0.029" stroke-miterlimit="10" stroke-linecap="round" stroke-linejoin="round" d="
			M244.24067,176.03086L244.23167,176.39977L244.74466,176.34578L244.90666,176.93063L244.87066,177.19156L244.76266,177.89338
			L243.54767,177.90238L243.60167,176.2558L243.67367,175.8869L244.24067,176.03086"/>
		<path clip-path="url(#SVG_CP_1)" fill="none" stroke="#000000" stroke-width="0.029" stroke-miterlimit="10" stroke-linecap="round" stroke-linejoin="round" d="
			M244.59166,180.59269L244.13267,180.60169L243.79067,180.41274L243.64667,180.12481L243.57467,179.53096L243.54767,177.90238
			L244.76266,177.89338L244.75366,178.23529L244.41166,178.24429L244.49266,179.44998L244.15067,179.49497L244.22267,180.41274
			L244.33066,180.51171L244.59166,180.5477L244.59166,180.59269"/>
		<path clip-path="url(#SVG_CP_1)" fill="none" stroke="#000000" stroke-width="0.029" stroke-miterlimit="10" stroke-linecap="round" stroke-linejoin="round" d="
			M242.56667,179.42299L242.70167,179.64793L243.02567,179.53096L243.57467,179.53096L243.64667,180.12481L243.79067,180.41274
			L244.13267,180.60169L244.59166,180.59269L244.60066,180.78164L244.42966,181.07857L244.15067,181.28551L242.62067,181.44747
			L242.35968,181.53745L242.08068,181.94234L240.70368,180.90761L240.88368,180.73665L240.91068,179.84588L240.70368,179.7829L
			240.78468,179.34201L240.60469,179.15306L241.08168,178.94611L241.80168,178.71217L242.44968,178.72117L242.56667,179.42299"/>
		<path clip-path="url(#SVG_CP_1)" fill="none" stroke="#000000" stroke-width="0.029" stroke-miterlimit="10" stroke-linecap="round" stroke-linejoin="round" d="
			M253.79861,188.51966L253.32162,188.51966L253.20462,188.29472L253.19562,188.27672L251.28763,184.70464L251.28763,184.4707L
			251.28763,184.4617L251.64762,184.11079L252.00762,183.63391L252.19662,183.15703L253.38462,185.31648L254.70761,187.73686L254.50961,188.04278
			L254.39261,188.40269L254.32061,188.41169L253.79861,188.51966"/>
		<path clip-path="url(#SVG_CP_1)" fill="none" stroke="#000000" stroke-width="0.029" stroke-miterlimit="10" stroke-linecap="round" stroke-linejoin="round" d="
			M252.71862,181.96034L253.19562,182.68016L253.50161,182.47321L254.68061,184.60566L253.38462,185.31648L252.19662,183.15703
			L252.24162,183.03107L252.12462,182.79713L251.89062,182.55419L252.00762,182.43722L252.48462,182.07731L252.61962,182.01433
			L252.71862,181.96034"/>
		<path clip-path="url(#SVG_CP_1)" fill="none" stroke="#000000" stroke-width="0.029" stroke-miterlimit="10" stroke-linecap="round" stroke-linejoin="round" d="
			M255.22961,181.48346L255.3466,181.60043L255.4006,181.60043L255.8236,181.60043L256.1836,181.96034L256.7776,183.274L256.7776,183.32799
			L256.1386,183.79587L254.68061,184.60566L253.50161,182.47321L253.55561,182.43722L254.37461,181.96934L254.39261,181.96034L
			255.18461,181.51046L255.22961,181.48346"/>
		<path clip-path="url(#SVG_CP_1)" fill="none" stroke="#000000" stroke-width="0.029" stroke-miterlimit="10" stroke-linecap="round" stroke-linejoin="round" d="
			M256.7776,183.32799L256.7776,183.86785L256.8226,183.82286L257.13759,184.24575L257.62359,184.38072L258.15459,185.18151L257.96559,185.18151
			L257.65959,185.48744L255.3646,185.46944L255.07661,185.31648L254.68061,184.60566L256.1386,183.79587L256.7776,183.32799"/>
		<path clip-path="url(#SVG_CP_1)" fill="none" stroke="#000000" stroke-width="0.029" stroke-miterlimit="10" stroke-linecap="round" stroke-linejoin="round" d="
			M255.5446,186.91807L255.8596,186.98105L255.7066,186.97205L254.75261,187.68287L254.70761,187.73686L253.38462,185.31648L254.68061,184.60566
			L255.07661,185.31648L255.3646,185.46944L255.5266,185.83835L255.5446,186.91807"/>
		<path clip-path="url(#SVG_CP_1)" fill="none" stroke="#000000" stroke-width="0.029" stroke-miterlimit="10" stroke-linecap="round" stroke-linejoin="round" d="
			M257.13759,186.61215L256.7776,187.08902L255.8596,186.98105L255.5446,186.91807L255.5266,185.83835L255.3646,185.46944L257.65959,185.48744
			L257.61459,185.54142L257.25459,185.89233L257.13759,186.25224L257.13759,186.61215"/>
		<path clip-path="url(#SVG_CP_1)" fill="none" stroke="#000000" stroke-width="0.029" stroke-miterlimit="10" stroke-linecap="round" stroke-linejoin="round" d="
			M258.77559,185.10953L258.80259,185.29848L258.51459,185.2445L258.20859,185.18151L258.15459,185.18151L257.62359,184.38072L
			257.13759,184.24575L256.8226,183.82286L258.32559,182.43722L258.44259,182.55419L258.77559,185.10953"/>
		<path clip-path="url(#SVG_CP_1)" fill="none" stroke="#000000" stroke-width="0.029" stroke-miterlimit="10" stroke-linecap="round" stroke-linejoin="round" d="
			M250.24363,179.0001L249.91063,179.24304L249.80264,179.0001L249.61364,178.55021L249.39764,178.18131L249.29864,177.77641L249.59564,177.59646
			L249.80264,178.15432L250.20763,178.42425L250.10863,178.86513L250.24363,179.0001"/>
		<path clip-path="url(#SVG_CP_1)" fill="none" stroke="#000000" stroke-width="0.029" stroke-miterlimit="10" stroke-linecap="round" stroke-linejoin="round" d="
			M251.08063,177.96536L250.20763,178.42425L249.80264,178.15432L249.59564,177.59646L250.41463,177.38051L250.73863,177.18256
			L251.08063,177.96536"/>
		<path clip-path="url(#SVG_CP_1)" fill="none" stroke="#000000" stroke-width="0.029" stroke-miterlimit="10" stroke-linecap="round" stroke-linejoin="round" d="
			M251.96262,177.99236L251.20663,178.29828L251.08063,177.96536L250.73863,177.18256L251.12563,176.82266L251.51263,176.81366
			L251.50363,177.48849L251.64762,177.74042L251.96262,177.99236"/>
		<path clip-path="url(#SVG_CP_1)" fill="none" stroke="#000000" stroke-width="0.029" stroke-miterlimit="10" stroke-linecap="round" stroke-linejoin="round" d="
			M251.20663,178.29828L250.24363,179.0001L250.10863,178.86513L250.20763,178.42425L251.08063,177.96536L251.20663,178.29828"/>
		<path clip-path="url(#SVG_CP_1)" fill="none" stroke="#000000" stroke-width="0.029" stroke-miterlimit="10" stroke-linecap="round" stroke-linejoin="round" d="
			M252.16962,179.31502L251.10763,180.35875L249.98263,179.49497L249.94663,179.35101L249.91063,179.24304L250.24363,179.0001L
			251.20663,178.29828L252.16962,179.31502"/>
		<path clip-path="url(#SVG_CP_1)" fill="none" stroke="#000000" stroke-width="0.029" stroke-miterlimit="10" stroke-linecap="round" stroke-linejoin="round" d="
			M253.96061,177.80341L254.73461,178.35226L254.50961,178.26229L254.14961,178.6222L253.91561,179.20705L253.91561,179.21604L
			253.84361,179.31502L253.46562,179.89087L253.43862,179.93586L253.19562,180.29577L253.16862,180.32276L252.16962,179.31502L
			251.20663,178.29828L251.96262,177.99236L252.24162,177.90238L253.67261,178.00135L253.96061,177.80341"/>
		<path clip-path="url(#SVG_CP_1)" fill="none" stroke="#000000" stroke-width="0.029" stroke-miterlimit="10" stroke-linecap="round" stroke-linejoin="round" d="
			M252.36762,180.77264L252.33162,180.78164L251.10763,180.35875L252.16962,179.31502L253.16862,180.32276L252.96162,180.52971
			L252.36762,180.77264"/>
		<path clip-path="url(#SVG_CP_1)" fill="none" stroke="#000000" stroke-width="0.029" stroke-miterlimit="10" stroke-linecap="round" stroke-linejoin="round" d="
			M251.10763,180.35875L252.33162,180.78164L251.89062,181.00658L251.17063,180.77264L250.99063,180.9526L250.93663,181.00658L
			250.69363,181.24952L249.98263,181.60043L249.98263,182.1313L249.98263,182.20328L249.98263,182.9141L249.85663,183.15703L249.62264,183.15703
			L249.02864,182.79713L248.59664,182.68915L248.48864,182.44622L248.83964,181.61843L248.74964,181.3395L248.83964,181.21353L
			249.31664,181.14155L249.54164,180.58369L250.06363,180.26877L249.98263,179.49497L251.10763,180.35875"/>
		<path clip-path="url(#SVG_CP_1)" fill="none" stroke="#000000" stroke-width="0.029" stroke-miterlimit="10" stroke-linecap="round" stroke-linejoin="round" d="
			M248.17364,177.88438L248.81264,177.93837L249.29864,177.77641L249.39764,178.18131L248.84864,178.44224L247.81365,178.69418
			L247.84065,178.37026L247.89465,177.63245L248.17364,177.88438"/>
		<path clip-path="url(#SVG_CP_1)" fill="none" stroke="#000000" stroke-width="0.029" stroke-miterlimit="10" stroke-linecap="round" stroke-linejoin="round" d="
			M248.47964,178.82014L248.52464,179.25203L247.79565,179.18905L247.81365,178.69418L248.84864,178.44224L249.39764,178.18131
			L249.61364,178.55021L248.47964,178.82014"/>
		<path clip-path="url(#SVG_CP_1)" fill="none" stroke="#000000" stroke-width="0.029" stroke-miterlimit="10" stroke-linecap="round" stroke-linejoin="round" d="
			M249.80264,179.0001L248.52464,179.25203L248.47964,178.82014L249.61364,178.55021L249.80264,179.0001"/>
		<path clip-path="url(#SVG_CP_1)" fill="none" stroke="#000000" stroke-width="0.029" stroke-miterlimit="10" stroke-linecap="round" stroke-linejoin="round" d="
			M244.69066,179.94486L244.59166,180.5477L244.33066,180.51171L244.22267,180.41274L244.15067,179.49497L244.49266,179.44998L
			244.41166,178.24429L244.75366,178.23529L244.76266,177.89338L245.25766,177.92937L245.18566,178.11832L244.98766,179.14406L
			244.69066,179.94486"/>
		<path clip-path="url(#SVG_CP_1)" fill="none" stroke="#000000" stroke-width="0.029" stroke-miterlimit="10" stroke-linecap="round" stroke-linejoin="round" d="
			M244.98766,179.84588L244.69066,179.94486L244.98766,179.14406L245.18566,178.11832L245.23966,178.13632L245.44666,178.9911L
			245.46466,179.32402L245.09566,179.396L244.96966,179.64793L244.98766,179.84588"/>
		<path clip-path="url(#SVG_CP_1)" fill="none" stroke="#000000" stroke-width="0.029" stroke-miterlimit="10" stroke-linecap="round" stroke-linejoin="round" d="
			M246.52665,178.70317L246.08566,178.88313L245.78866,179.0001L245.73466,178.87413L245.44666,178.9911L245.23966,178.13632L246.11266,177.78541
			L246.12166,177.8124L246.52665,178.70317"/>
		<path clip-path="url(#SVG_CP_1)" fill="none" stroke="#000000" stroke-width="0.029" stroke-miterlimit="10" stroke-linecap="round" stroke-linejoin="round" d="
			M247.81365,178.69418L247.79565,179.18905L247.58865,178.93711L246.78765,178.69418L246.52665,178.70317L246.12166,177.8124L
			247.46265,177.38951L247.89465,177.63245L247.84065,178.37026L247.42665,178.49623L247.56165,178.64919L247.81365,178.69418"/>
		<path clip-path="url(#SVG_CP_1)" fill="none" stroke="#000000" stroke-width="0.029" stroke-miterlimit="10" stroke-linecap="round" stroke-linejoin="round" d="
			M245.73466,178.87413L245.78866,179.0001L246.08566,178.88313L246.20265,178.90112L246.30165,179.7739L245.86966,179.96285L245.45566,179.98984
			L245.43766,180.44873L244.59166,180.5477L244.69066,179.94486L244.98766,179.84588L244.96966,179.64793L245.09566,179.396L245.46466,179.32402
			L245.44666,178.9911L245.73466,178.87413"/>
		<path clip-path="url(#SVG_CP_1)" fill="none" stroke="#000000" stroke-width="0.029" stroke-miterlimit="10" stroke-linecap="round" stroke-linejoin="round" d="
			M247.74165,179.72891L246.30165,179.7739L246.20265,178.90112L246.08566,178.88313L246.52665,178.70317L246.78765,178.69418L
			247.58865,178.93711L247.79565,179.18905L247.74165,179.72891"/>
		<path clip-path="url(#SVG_CP_1)" fill="none" stroke="#000000" stroke-width="0.029" stroke-miterlimit="10" stroke-linecap="round" stroke-linejoin="round" d="
			M247.84065,178.37026L247.81365,178.69418L247.56165,178.64919L247.42665,178.49623L247.84065,178.37026"/>
		<path clip-path="url(#SVG_CP_1)" fill="none" stroke="#000000" stroke-width="0.029" stroke-miterlimit="10" stroke-linecap="round" stroke-linejoin="round" d="
			M249.33464,179.48597L249.43364,179.95385L248.82164,179.92686L248.67764,180.00784L248.69564,180.24178L249.04664,180.26877
			L249.02864,180.5747L248.83064,180.5657L248.32664,181.01558L247.66065,180.5567L247.74165,179.72891L247.79565,179.18905L248.52464,179.25203
			L248.50664,179.40499L249.33464,179.48597"/>
		<path clip-path="url(#SVG_CP_1)" fill="none" stroke="#000000" stroke-width="0.029" stroke-miterlimit="10" stroke-linecap="round" stroke-linejoin="round" d="
			M249.94663,179.35101L249.33464,179.48597L248.50664,179.40499L248.52464,179.25203L249.80264,179.0001L249.91063,179.24304L
			249.94663,179.35101"/>
		<path clip-path="url(#SVG_CP_1)" fill="none" stroke="#000000" stroke-width="0.029" stroke-miterlimit="10" stroke-linecap="round" stroke-linejoin="round" d="
			M249.98263,179.49497L250.06363,180.26877L249.54164,180.58369L249.31664,181.14155L248.83964,181.21353L248.74964,181.3395L
			248.32664,181.01558L248.83064,180.5657L249.02864,180.5747L249.04664,180.26877L248.69564,180.24178L248.67764,180.00784L248.82164,179.92686
			L249.43364,179.95385L249.33464,179.48597L249.94663,179.35101L249.98263,179.49497"/>
		<path clip-path="url(#SVG_CP_1)" fill="none" stroke="#000000" stroke-width="0.029" stroke-miterlimit="10" stroke-linecap="round" stroke-linejoin="round" d="
			M247.74165,179.72891L247.66065,180.5567L247.00365,180.52971L245.43766,180.61968L245.43766,180.44873L245.45566,179.98984L
			245.86966,179.96285L246.30165,179.7739L247.74165,179.72891"/>
		<path clip-path="url(#SVG_CP_1)" fill="none" stroke="#000000" stroke-width="0.029" stroke-miterlimit="10" stroke-linecap="round" stroke-linejoin="round" d="
			M245.43766,180.44873L245.43766,180.61968L247.00365,180.52971L247.21965,181.11456L247.22865,182.32025L247.10265,182.32925
			L247.10265,182.68016L246.40065,182.68016L246.39165,182.68016L245.36566,182.68016L245.32966,182.68016L245.32966,181.60043
			L244.37566,181.60043L244.01567,181.7264L244.01567,181.96034L242.22468,182.20328L242.10768,181.96034L242.08068,181.94234L
			242.35968,181.53745L242.62067,181.44747L244.15067,181.28551L244.42966,181.07857L244.60066,180.78164L244.59166,180.59269L
			244.59166,180.5477L245.43766,180.44873"/>
		<path clip-path="url(#SVG_CP_1)" fill="#FF0000" fill-opacity="0.9" stroke="#000000" stroke-width="0.029" stroke-miterlimit="10" stroke-linecap="round" stroke-linejoin="round" d="
			M248.48864,182.44622L248.59664,182.68915L248.55164,182.68016L247.47165,182.68016L247.43565,182.68016L247.12065,182.68016
			L247.10265,182.68016L247.10265,182.32925L247.22865,182.32025L247.21965,181.11456L247.00365,180.52971L247.66065,180.5567L
			248.32664,181.01558L248.74964,181.3395L248.83964,181.61843L248.48864,182.44622"/>
       </g>
  <rect
     style="opacity:1;color:#000000;fill:#ffaaaa;fill-opacity:1;fill-rule:nonzero;stroke:#000000;stroke-width:0.77678889;stroke-linecap:round;stroke-linejoin:round;marker:none;
            marker-start:none;marker-mid:none;marker-end:none;stroke-miterlimit:10;stroke-dasharray:none;stroke-dashoffset:0;stroke-opacity:1;visibility:visible;display:inline;overflow:visible;enable-background:accumulate"
     id="rect_legend_wijk"
     width="17.2"
     height="17.2"
     x="14.5"
     y="460.0" />
  <rect
     style="opacity:1;color:#000000;fill:#ff0000;fill-opacity:1;fill-rule:nonzero;stroke:#000000;stroke-width:0.77678889;stroke-linecap:round;stroke-linejoin:round;marker:none;
            marker-start:none;marker-mid:none;marker-end:none;stroke-miterlimit:10;stroke-dasharray:none;stroke-dashoffset:0;stroke-opacity:1;visibility:visible;display:inline;overflow:visible;enable-background:accumulate"
     id="rect_legend_buurt"
     width="17.2"
     height="17.2"
     x="14.5"
     y="481.0" />
  <text
     xml:space="preserve"
     style="font-size:14px;font-style:normal;font-weight:normal;text-align:start;line-height:125%;writing-mode:lr-tb;text-anchor:start;fill:#000000;fill-opacity:1;stroke:none;
            stroke-width:1px;stroke-linecap:butt;stroke-linejoin:miter;stroke-opacity:1;font-family:Bitstream Vera Sans"
     x="38.0" 
     y="472.0"
     id="textwijknaam" 
     sodipodi:linespacing="125%"><tspan
       sodipodi:role="line"
       id="tspan4166" 
       x="38.0" 
       y="473.0">Stadsdeel Zuideramstel</tspan></text>
  <text
     xml:space="preserve"
     style="font-size:14px;font-style:normal;font-weight:normal;text-align:start;line-height:100%;writing-mode:lr-tb;text-anchor:start;fill:#000000;fill-opacity:1;stroke:none;
            stroke-width:1px;stroke-linecap:butt;stroke-linejoin:miter;stroke-opacity:1;font-family:Bitstream Vera Sans"
     x="38.0"
     y="493.0"
     id="textbuurtnaam"
     sodipodi:linespacing="125%"><tspan
       sodipodi:role="line"
       id="tspan4170"
       x="38.0"
       y="494.0">Buurt 91 Buitenveldert-Oost</tspan></text>
</svg>
